<?xml version="1.0" standalone="no"?>
<!DOCTYPE svg PUBLIC "-//W3C//DTD SVG 20010904//EN"
 "http://www.w3.org/TR/2001/REC-SVG-20010904/DTD/svg10.dtd">
<svg version="1.0" xmlns="http://www.w3.org/2000/svg"
 width="500.000000pt" height="500.000000pt" viewBox="0 0 500.000000 500.000000"
 preserveAspectRatio="xMidYMid meet">

<g transform="translate(0.000000,500.000000) scale(0.100000,-0.100000)"
fill="#000000" stroke="none">
<path d="M2913 3016 c-59 -19 -99 -50 -130 -104 -51 -85 -33 -214 39 -278 77
-71 190 -78 281 -18 39 26 69 78 81 142 l6 32 -88 -2 c-67 -1 -77 -2 -42 -7
58 -8 74 -36 58 -100 -35 -140 -259 -90 -305 68 -37 129 35 261 143 261 45 0
110 -37 139 -80 33 -47 41 -49 48 -12 8 36 -34 76 -104 96 -62 19 -71 19 -126
2z"/>
<path d="M1982 2998 c2 -31 -119 -378 -139 -400 -15 -17 -14 -18 14 -18 27 0
30 3 26 24 -7 32 34 153 53 160 60 23 131 -22 158 -101 9 -26 16 -55 16 -65 0
-14 8 -18 40 -18 l41 0 -16 30 c-8 16 -42 107 -74 202 -76 221 -69 208 -97
208 -18 0 -23 -5 -22 -22z m88 -254 c0 -1 -21 10 -47 23 -28 14 -57 22 -70 18
-21 -5 -21 -4 9 87 l31 92 38 -110 c21 -60 38 -110 39 -110z"/>
<path d="M2230 3001 c13 -26 13 -376 0 -402 -10 -17 -7 -19 20 -19 28 0 30 2
20 20 -6 12 -9 79 -8 173 l3 154 82 -171 c78 -164 83 -171 113 -174 28 -3 30
-1 22 14 -11 19 -2 42 102 254 l66 135 -2 -203 -3 -202 37 0 c36 0 37 1 28 26
-13 33 -13 355 0 389 10 26 9 26 -26 23 l-35 -3 -88 -183 c-49 -100 -91 -185
-94 -188 -3 -3 -47 80 -98 185 -88 182 -93 191 -121 191 -25 0 -27 -2 -18 -19z"/>
<path d="M321 1884 c0 -11 13 -33 30 -50 17 -16 40 -42 50 -59 11 -16 19 -24
19 -17 0 7 -20 34 -44 60 -24 26 -46 56 -49 67 -5 19 -5 19 -6 -1z"/>
<path d="M560 1805 c-3 -49 -4 -92 -3 -94 10 -15 13 18 11 95 l-3 89 -5 -90z"/>
<path d="M728 1800 c-2 -50 0 -90 5 -90 4 0 7 41 7 90 0 50 -2 90 -4 90 -3 0
-6 -41 -8 -90z"/>
<path d="M1010 1885 c0 -5 5 -17 10 -25 5 -8 10 -10 10 -5 0 6 -5 17 -10 25
-5 8 -10 11 -10 5z"/>
<path d="M1240 1805 c-3 -49 -4 -92 -3 -94 10 -15 13 18 11 95 l-3 89 -5 -90z"/>
<path d="M1408 1800 c-2 -50 0 -90 5 -90 4 0 7 41 7 90 0 50 -2 90 -4 90 -3 0
-6 -41 -8 -90z"/>
<path d="M1875 1800 c0 -50 3 -90 8 -90 4 0 7 41 7 90 0 50 -3 90 -7 90 -5 0
-8 -41 -8 -90z"/>
<path d="M2375 1800 c0 -50 3 -90 8 -90 4 0 7 41 7 90 0 50 -3 90 -7 90 -5 0
-8 -41 -8 -90z"/>
<path d="M2502 1800 l2 -95 5 80 6 80 78 -74 77 -74 -2 89 -2 89 -3 -72 c-2
-40 -7 -73 -11 -73 -3 0 -39 33 -79 72 l-73 72 2 -94z"/>
<path d="M2782 1845 c12 -24 23 -43 25 -42 6 6 -30 87 -38 87 -5 0 1 -20 13
-45z"/>
<path d="M3024 1800 c0 -52 1 -74 3 -47 2 26 2 68 0 95 -2 26 -3 4 -3 -48z"/>
<path d="M3442 1803 c-1 -51 1 -93 6 -93 4 0 6 28 4 62 -5 113 -9 125 -10 31z"/>
<path d="M3918 1800 c-2 -50 0 -90 5 -90 4 0 7 41 7 90 0 50 -2 90 -4 90 -3 0
-6 -41 -8 -90z"/>
<path d="M4438 1800 c-2 -50 0 -90 5 -90 4 0 7 41 7 90 0 50 -2 90 -4 90 -3 0
-6 -41 -8 -90z"/>
<path d="M821 1850 c0 -29 1 -32 10 -17 7 11 7 23 0 35 -9 14 -10 11 -10 -18z"/>
<path d="M3620 1865 c0 -8 3 -15 8 -15 4 0 22 -29 41 -65 19 -35 37 -63 39
-60 4 4 -77 155 -84 155 -2 0 -4 -7 -4 -15z"/>
<path d="M3780 1872 c0 -34 24 -162 30 -162 7 0 -17 161 -26 169 -2 2 -4 -1
-4 -7z"/>
<path d="M4120 1877 c0 -7 114 -116 140 -134 11 -8 20 -11 19 -6 -1 9 -159
148 -159 140z"/>
<path d="M4591 1858 c-1 -9 18 -32 40 -50 23 -18 45 -42 50 -53 6 -16 8 -17 8
-3 1 9 -18 33 -41 53 -24 20 -46 44 -50 53 -6 16 -7 16 -7 0z"/>
<path d="M1597 1853 c-9 -9 -9 -91 1 -96 4 -3 7 19 7 49 0 30 0 54 -1 54 0 0
-4 -3 -7 -7z"/>
<path d="M1997 1853 c-9 -9 -9 -91 1 -96 4 -3 7 19 7 49 0 30 0 54 -1 54 0 0
-4 -3 -7 -7z"/>
<path d="M3210 1844 c0 -7 12 -19 26 -29 14 -9 34 -25 45 -36 10 -10 19 -15
19 -10 0 5 -17 21 -37 37 -21 15 -41 33 -45 38 -5 8 -8 7 -8 0z"/>
<path d="M1040 1814 c1 -5 7 -20 15 -34 8 -14 14 -35 15 -47 0 -13 6 -23 14
-23 11 0 8 13 -11 53 -27 56 -33 66 -33 51z"/>
<path d="M3611 1794 c0 -11 3 -14 6 -6 3 7 2 16 -1 19 -3 4 -6 -2 -5 -13z"/>
<path d="M799 1772 c11 -16 28 -35 38 -43 9 -8 2 5 -17 29 -38 48 -52 57 -21
14z"/>
<path d="M1762 1770 c0 -14 2 -19 5 -12 2 6 2 18 0 25 -3 6 -5 1 -5 -13z"/>
<path d="M936 1725 c-3 -8 -1 -15 4 -15 6 0 10 7 10 15 0 8 -2 15 -4 15 -2 0
-6 -7 -10 -15z"/>
<path d="M3601 1724 c0 -11 3 -14 6 -6 3 7 2 16 -1 19 -3 4 -6 -2 -5 -13z"/>
<path d="M3098 1713 c7 -3 16 -2 19 1 4 3 -2 6 -13 5 -11 0 -14 -3 -6 -6z"/>
<path d="M3998 1713 c7 -3 16 -2 19 1 4 3 -2 6 -13 5 -11 0 -14 -3 -6 -6z"/>
</g>
</svg>
