
<svg version="1.1" xmlns="http://www.w3.org/2000/svg" style="display: block;" viewBox="0 0 2000 2000" width="500" height="500" preserveAspectRatio="none"><path transform="translate(0,0)" fill="rgb(18,18,17)" d="M 0 0 L 2000 0 L 2000 2000 L 0 2000 L 0 0 z"/><path transform="translate(0,0)" fill="rgb(198,151,70)" d="M 991.759 394.682 C 997.207 396.14 1065.95 444.834 1075.32 451.283 L 1439.62 701.832 L 1531.73 765.17 C 1541.44 771.801 1571.34 791.163 1577.95 797.732 L 1577.69 800.051 C 1575.48 803.17 1576.33 803.022 1573.41 803.923 C 1551.56 790.397 1525.99 771.674 1504.35 756.794 L 1374.24 667.358 L 993.754 405.583 C 959.589 428.86 924.386 454.676 890.583 478.684 L 697.804 615.586 L 518.911 742.63 C 490.072 763.149 459.708 783.939 431.467 804.987 C 430.14 826.458 431.005 857.361 431.001 879.32 L 430.988 1015.83 L 431.123 1429.05 L 601.5 1429.09 L 1244.35 1429.09 L 1458.24 1429.06 C 1471.7 1429.06 1565.81 1428.23 1569.56 1430.14 C 1570.27 1433.45 1570.33 1431.82 1569.11 1435.18 C 1564.23 1438.98 1556.63 1437.06 1550.61 1437.02 L 1515.6 1437.11 L 1401.66 1437.11 L 733.753 1437.11 L 522.404 1437.11 L 461.177 1437.18 C 449.761 1437.25 434.041 1437.9 423.138 1437.03 L 423.12 972.461 L 423.146 862.782 C 423.144 849.07 424.053 813.125 421.385 801.698 C 430.836 796.454 449.633 782.33 458.874 775.729 L 525.019 728.55 L 751.277 567.482 L 915.176 450.737 L 959.845 419.124 C 969.305 412.426 983.815 402.647 991.759 394.682 z"/><path transform="translate(0,0)" fill="rgb(254,254,254)" d="M 657.44 936.887 L 688.646 936.792 C 692.838 951.461 699.759 969.946 704.776 984.595 L 734.228 1070.53 L 758.194 1140.36 C 765.826 1162.57 776.528 1199.3 792.275 1215.9 L 743.679 1216.15 C 747.998 1197.41 738.861 1171.22 731.598 1153.9 C 721.079 1128.81 702.014 1106.53 676.25 1096.3 C 668.638 1092.98 659.588 1091.74 651.334 1091.83 C 641.909 1091.93 629.421 1094.19 622.896 1101.6 C 614.741 1110.87 589.401 1191.82 590.979 1204.15 C 591.702 1209.79 597.494 1212.88 601.703 1215.86 L 561.92 1216.12 C 568.341 1211.56 577.063 1204.56 580.671 1197.61 C 593.075 1173.74 601.467 1145.46 610.166 1119.95 L 645.336 1016.89 C 651.675 998.321 658.418 977.092 665.417 958.969 C 662.895 951.56 660.236 944.198 657.44 936.887 z"/><path transform="translate(0,0)" fill="rgb(18,18,17)" d="M 667.259 964.045 C 669.73 972.165 672.743 980.751 675.615 988.744 C 691.184 1032.08 704.715 1076.69 720.813 1119.79 L 717.05 1122.09 C 699.298 1099.91 672.092 1084.3 642.987 1088.28 C 637.889 1088.98 629.847 1091.91 624.816 1093.49 C 623.685 1087.79 632.856 1069.02 634.792 1062.5 C 644.614 1029.38 657.391 997.174 667.259 964.045 z"/><path transform="translate(0,0)" fill="rgb(39,40,37)" d="M 720.813 1119.79 C 722.52 1125.03 723.692 1128.18 725.84 1133.26 C 721.577 1128.7 720.478 1127.21 717.05 1122.09 L 720.813 1119.79 z"/><path transform="translate(0,0)" fill="rgb(254,254,254)" d="M 1285.41 935.416 C 1287.66 935.165 1289.93 935.069 1292.19 935.127 C 1336.98 936.091 1369.02 953.465 1399.35 985.119 C 1395.29 997.426 1392.52 1009.81 1388.12 1022.55 C 1385.28 1019.16 1381.71 1013.38 1379.45 1009.51 C 1353.14 964.314 1307.2 928.636 1252.54 944.776 C 1206.18 958.468 1183.69 1001.61 1178.99 1047.52 C 1174.87 1087.63 1185.63 1130.04 1211.59 1161.41 C 1232.74 1187.22 1263.32 1203.53 1296.54 1206.71 C 1320.54 1208.79 1345.79 1204.69 1364.52 1188.61 C 1382.5 1173.18 1386.68 1153.73 1388.46 1131.24 C 1393.59 1093.31 1365.1 1084.64 1334.59 1087.23 C 1331 1087.53 1324.11 1087.66 1320.78 1086.4 L 1320.34 1084.79 C 1326.04 1080.47 1397.68 1084.45 1408.12 1082.87 C 1410.38 1082.52 1422.61 1083.06 1425.5 1083.38 L 1426.24 1084.46 C 1418.19 1097.01 1420.16 1104.06 1417.33 1119.02 C 1413.72 1137.78 1405.69 1155.41 1393.92 1170.45 C 1372.56 1197.52 1341.34 1212.55 1307.43 1216.37 C 1269.6 1220.8 1231.56 1209.97 1201.74 1186.27 C 1135.69 1132.8 1132.48 1028.31 1196.44 972.166 C 1224.8 947.271 1248.2 938.733 1285.41 935.416 z"/><path transform="translate(0,0)" fill="rgb(254,254,254)" d="M 813.629 936.905 L 845.858 936.817 C 882.519 1019.9 929.311 1104.93 966.316 1188.15 L 969.996 1189.17 C 968.212 1195.53 976.691 1209.24 980.097 1215.83 C 969.58 1216.15 958.446 1216.09 947.874 1216.19 C 941.784 1200.56 926.236 1170.59 918.505 1154.53 L 863.4 1040.04 C 853.906 1020.31 841.929 996.996 833.448 977.06 C 832.156 979.988 832.858 1019.66 832.859 1025.03 L 832.88 1116.47 C 832.895 1149.12 828.84 1188.88 849.236 1215.95 L 811.747 1216.09 C 832.736 1194.59 828.435 1141.47 828.421 1112.39 L 828.251 1012.21 C 828.23 1002.42 827.54 979.182 829.339 970.701 C 824.407 958.992 819.195 948.328 813.629 936.905 z"/><path transform="translate(0,0)" fill="rgb(254,254,254)" d="M 1127.21 936.859 C 1113.27 954.201 1116.86 974.776 1116.85 996.256 L 1116.83 1062.14 L 1116.86 1145.62 C 1116.88 1162.33 1116.5 1179.66 1117.8 1196.3 C 1118.51 1205.41 1121.68 1209.62 1127.83 1215.9 C 1110.71 1216.07 1093.58 1216.11 1076.46 1216 C 1080.13 1212.18 1084.89 1206.97 1085.63 1201.53 C 1088.18 1182.91 1088.02 1163.05 1087.72 1144.22 C 1086.77 1084.84 1088.98 1024.75 1087.67 965.438 C 1087.58 959.617 1087.26 953.802 1086.71 948.006 L 1083.15 946.784 L 1087.22 936.935 L 1127.21 936.859 z"/><path transform="translate(0,0)" fill="rgb(254,254,254)" d="M 966.316 1188.15 C 975.959 1170 986.17 1147.03 995.276 1128.18 L 1053.8 1006.82 L 1072.43 967.94 C 1074.63 963.338 1080.44 950.43 1083.15 946.784 L 1086.71 948.006 C 1077.22 965.119 1062.96 997.511 1054.14 1015.97 L 995.392 1137.65 C 992.033 1144.62 973.273 1185.25 969.996 1189.17 L 966.316 1188.15 z"/></svg>