
<svg version="1.1" xmlns="http://www.w3.org/2000/svg" style="display: block;" viewBox="0 0 2000 2000" width="500" height="500" preserveAspectRatio="none"><defs><linearGradient id="Gradient1" gradientUnits="userSpaceOnUse" x1="680.16" y1="1317.43" x2="684.628" y2="1279.37"><stop class="stop0" offset="0" stop-opacity="1" stop-color="rgb(73,71,76)"/><stop class="stop1" offset="1" stop-opacity="1" stop-color="rgb(112,110,112)"/></linearGradient><linearGradient id="Gradient2" gradientUnits="userSpaceOnUse" x1="292.565" y1="1245.32" x2="329.463" y2="1272.37"><stop class="stop0" offset="0" stop-opacity="1" stop-color="rgb(76,72,76)"/><stop class="stop1" offset="1" stop-opacity="1" stop-color="rgb(126,125,127)"/></linearGradient><linearGradient id="Gradient3" gradientUnits="userSpaceOnUse" x1="762.293" y1="1281.1" x2="734.405" y2="1271.81"><stop class="stop0" offset="0" stop-opacity="1" stop-color="rgb(57,62,60)"/><stop class="stop1" offset="1" stop-opacity="1" stop-color="rgb(94,91,96)"/></linearGradient><linearGradient id="Gradient4" gradientUnits="userSpaceOnUse" x1="285.331" y1="1277.27" x2="298.474" y2="1279.12"><stop class="stop0" offset="0" stop-opacity="1" stop-color="rgb(86,90,84)"/><stop class="stop1" offset="1" stop-opacity="1" stop-color="rgb(97,93,104)"/></linearGradient><linearGradient id="Gradient5" gradientUnits="userSpaceOnUse" x1="1845.67" y1="1288.84" x2="1861.41" y2="1272.24"><stop class="stop0" offset="0" stop-opacity="1" stop-color="rgb(103,102,107)"/><stop class="stop1" offset="1" stop-opacity="1" stop-color="rgb(141,139,138)"/></linearGradient><linearGradient id="Gradient6" gradientUnits="userSpaceOnUse" x1="659.173" y1="1280.55" x2="633.521" y2="1278.72"><stop class="stop0" offset="0" stop-opacity="1" stop-color="rgb(97,94,97)"/><stop class="stop1" offset="1" stop-opacity="1" stop-color="rgb(135,135,135)"/></linearGradient><linearGradient id="Gradient7" gradientUnits="userSpaceOnUse" x1="819.942" y1="1281.54" x2="793.499" y2="1279.85"><stop class="stop0" offset="0" stop-opacity="1" stop-color="rgb(96,94,96)"/><stop class="stop1" offset="1" stop-opacity="1" stop-color="rgb(134,134,134)"/></linearGradient><linearGradient id="Gradient8" gradientUnits="userSpaceOnUse" x1="1744.91" y1="1274.65" x2="1784.1" y2="1278.25"><stop class="stop0" offset="0" stop-opacity="1" stop-color="rgb(71,67,79)"/><stop class="stop1" offset="1" stop-opacity="1" stop-color="rgb(120,120,120)"/></linearGradient><linearGradient id="Gradient9" gradientUnits="userSpaceOnUse" x1="1238.52" y1="1275.52" x2="1204.52" y2="1276.06"><stop class="stop0" offset="0" stop-opacity="1" stop-color="rgb(73,75,78)"/><stop class="stop1" offset="1" stop-opacity="1" stop-color="rgb(118,117,118)"/></linearGradient><linearGradient id="Gradient10" gradientUnits="userSpaceOnUse" x1="1601.62" y1="1273.4" x2="1564.12" y2="1276.64"><stop class="stop0" offset="0" stop-opacity="1" stop-color="rgb(73,75,74)"/><stop class="stop1" offset="1" stop-opacity="1" stop-color="rgb(131,130,133)"/></linearGradient><linearGradient id="Gradient11" gradientUnits="userSpaceOnUse" x1="1459.88" y1="1318.41" x2="1477.62" y2="1249.89"><stop class="stop0" offset="0" stop-opacity="1" stop-color="rgb(102,104,105)"/><stop class="stop1" offset="1" stop-opacity="1" stop-color="rgb(132,129,131)"/></linearGradient><linearGradient id="Gradient12" gradientUnits="userSpaceOnUse" x1="1050.53" y1="1258.11" x2="1024.38" y2="1287.04"><stop class="stop0" offset="0" stop-opacity="1" stop-color="rgb(100,99,100)"/><stop class="stop1" offset="1" stop-opacity="1" stop-color="rgb(143,141,142)"/></linearGradient><linearGradient id="Gradient13" gradientUnits="userSpaceOnUse" x1="1696.49" y1="1259.72" x2="1676" y2="1280.55"><stop class="stop0" offset="0" stop-opacity="1" stop-color="rgb(92,96,95)"/><stop class="stop1" offset="1" stop-opacity="1" stop-color="rgb(138,136,137)"/></linearGradient></defs><path transform="translate(0,0)" fill="rgb(243,242,236)" d="M 0 0 L 2000 0 L 2000 2000 L 0 2000 L 0 0 z"/><path transform="translate(0,0)" fill="rgb(29,29,28)" d="M 1061.32 789.994 C 1070.55 790.242 1080.21 790.214 1089.46 790.317 C 1087.56 792.813 1082.83 799.157 1082.71 802.745 C 1081.04 853.071 1081.6 905.244 1082.5 955.634 C 1082.58 960.224 1087.21 966.511 1089.48 969.818 L 1052.43 969.558 L 1059.76 960.336 C 1061.47 949.705 1060.89 926.241 1060.89 914.714 L 1060.82 833.5 C 1060.85 823.729 1060.5 813.639 1060.29 803.845 C 1046.21 834.734 1030.61 866.315 1015.85 896.975 C 1008.05 913.17 997.066 937.723 988.399 952.87 L 996.781 969.912 C 989.22 969.646 980.714 969.827 973.078 969.817 C 970.683 963.775 967.244 956.862 964.297 950.977 C 943.399 909.248 924.749 865.529 903.178 824.228 C 902.572 855.328 903.104 886.712 902.925 917.841 C 902.817 936.583 903.299 953.867 914.061 969.84 L 886.059 969.736 C 897.716 952.008 897.461 938.452 897.417 917.444 C 897.343 882.625 898.101 847.523 896.833 812.78 C 896.697 809.053 888.985 794.173 886.984 790.074 L 910.576 790.122 C 916.667 805.529 926.421 823.312 933.571 838.7 C 950.489 875.109 969.762 911.783 986.104 948.356 C 988.587 941.578 991.679 935.815 994.583 929.328 C 1015.42 882.779 1041.11 836.678 1061.32 789.994 z"/><path transform="translate(0,0)" fill="rgb(195,142,53)" d="M 1001.89 451.788 C 1092.37 516.097 1188.11 580.091 1279.82 643.289 L 1335.82 681.674 C 1346.6 689.069 1367.7 702.358 1375.44 711.419 C 1362.61 706.08 1341.09 690.152 1328.63 681.564 L 1260.95 634.929 L 1002.78 457.22 L 768.031 624.321 C 730.312 651.174 685.427 685.146 647.514 709.682 C 649.022 839.777 648.305 973.999 647.568 1104.21 C 683.447 1103.54 720.532 1104 756.5 1103.99 L 1175.15 1104 L 1296.46 1103.97 C 1315.06 1103.95 1348.54 1102.89 1365.92 1104.98 L 1366.65 1105.93 C 1359.68 1110.18 1313.78 1108.56 1301.82 1108.57 L 1176.94 1108.57 L 828.292 1108.56 L 713.864 1108.56 C 690.864 1108.56 665.866 1108.06 643.111 1109.12 L 643.102 844.887 C 643.099 800.395 643.849 753.409 642.69 709.166 C 645.203 704.397 732.234 643.985 742.02 637.046 L 933.791 501.123 C 953.7 487.009 984.295 467.592 1001.89 451.788 z"/><path transform="translate(0,0)" fill="rgb(29,29,28)" d="M 789.193 790.218 L 811.217 790.04 L 840.623 876.085 C 848.697 899.687 863.959 951.605 878.183 969.776 L 843.914 969.787 C 847.794 941.947 829.32 905.307 802.802 893.746 C 801.731 893.432 800.656 893.129 799.578 892.837 C 787.021 889.405 780.453 890.211 769.578 896.457 C 762.767 910.485 751.849 945.114 750.109 960.309 L 758.049 969.819 C 747.731 969.753 737.413 969.621 727.096 969.423 C 748.736 952.434 754.005 924.745 762.596 899.382 C 773.024 868.204 783.623 837.084 794.392 806.022 C 792.694 800.743 790.961 795.475 789.193 790.218 z"/><path transform="translate(0,0)" fill="rgb(243,242,236)" d="M 797.224 815.647 C 800.048 818.987 825.229 896.166 829.669 907.421 C 823.785 902.066 819.851 898.432 813.385 893.88 C 812.772 893.544 812.153 893.218 811.529 892.902 C 797.284 885.713 786.506 883.701 771.364 888.761 C 780.941 865.727 787.375 838.82 797.224 815.647 z"/><path transform="translate(0,0)" fill="rgb(29,29,28)" d="M 1186.87 789.385 C 1187.87 789.33 1188.87 789.29 1189.87 789.263 C 1218.02 788.578 1240.57 803.326 1260.13 821.702 C 1257.57 831.796 1255.4 838.97 1252.12 848.804 C 1247.51 842.992 1242.44 834.101 1237.92 827.523 C 1219.4 799.422 1178.25 784.983 1149.4 806.852 C 1112.57 834.773 1112.83 895.088 1139.38 929.915 C 1159.46 956.253 1205.5 972.401 1233.82 951.03 C 1246.68 941.328 1249.23 924.838 1250.59 909.896 C 1249.04 899.389 1248.51 898.76 1241.37 890.91 C 1229.34 887.199 1215.78 888.625 1207.58 884.859 C 1207.61 884.865 1207.64 884.872 1207.66 884.879 L 1209.15 885.43 L 1209.29 883.75 C 1219.76 882.246 1264.54 883.187 1278.72 883.165 C 1268.16 898.909 1272.98 922.296 1257.25 939.829 C 1204.95 998.113 1109.83 969.042 1101.29 890.688 C 1098.32 865.799 1105.65 840.778 1121.57 821.418 C 1138.86 800.06 1160.41 792.216 1186.87 789.385 z"/><path transform="translate(0,0)" fill="rgb(195,142,53)" d="M 893.238 1401.67 C 943.464 1403.02 996.272 1400.82 1046.68 1401.76 C 1059.6 1402 1095.13 1400.58 1105.73 1402.14 C 1107.49 1404.82 1107.02 1408.48 1107.01 1411.85 C 1058.31 1412.98 1007.72 1411.37 958.825 1412.07 C 949.641 1412.2 899.437 1412.5 894.097 1411.39 C 892.441 1408.64 893.076 1405.03 893.238 1401.67 z"/><path transform="translate(0,0)" fill="rgb(243,242,236)" d="M 394.397 1290.58 C 390.635 1290.77 388.65 1290.35 386.751 1294.29 C 384.629 1298.7 379.139 1306.03 381.047 1311.14 C 381.384 1312.04 384.433 1311.89 385.119 1314.77 C 380.912 1315.56 370.332 1315.39 366.015 1314.73 C 368.774 1311.6 371.833 1313.01 374.507 1307.7 C 385.574 1285.74 395.863 1263.33 405.534 1240.72 L 407.354 1240.8 C 410.809 1254.32 432.627 1298.37 439.733 1312.16 L 445.346 1314.01 L 445.412 1314.74 C 439.359 1315.28 429.228 1316.9 423.907 1314.58 C 424.902 1312.4 425.032 1312.45 426.719 1310.7 C 427.883 1304.44 423.434 1296.96 420.682 1291 L 394.397 1290.58 z"/><path transform="translate(0,0)" fill="rgb(129,128,129)" d="M 407.354 1240.8 C 410.809 1254.32 432.627 1298.37 439.733 1312.16 L 445.346 1314.01 L 445.412 1314.74 C 439.359 1315.28 429.228 1316.9 423.907 1314.58 C 424.902 1312.4 425.032 1312.45 426.719 1310.7 C 427.883 1304.44 423.434 1296.96 420.682 1291 L 394.397 1290.58 C 402.778 1288.37 409.156 1290.57 418.098 1289.16 L 417.156 1287.22 L 417.899 1285.47 C 416.111 1279.41 407.929 1255.69 404.514 1251.89 C 404.501 1249.85 407.583 1247.17 407.354 1240.8 z"/><path transform="translate(0,0)" fill="rgb(95,94,97)" d="M 394.397 1290.58 C 390.635 1290.77 388.65 1290.35 386.751 1294.29 C 384.629 1298.7 379.139 1306.03 381.047 1311.14 C 381.384 1312.04 384.433 1311.89 385.119 1314.77 C 380.912 1315.56 370.332 1315.39 366.015 1314.73 C 368.774 1311.6 371.833 1313.01 374.507 1307.7 C 385.574 1285.74 395.863 1263.33 405.534 1240.72 L 407.354 1240.8 C 407.583 1247.17 404.501 1249.85 404.514 1251.89 L 389.538 1287.21 C 398.149 1287.11 408.701 1286.71 417.156 1287.22 L 418.098 1289.16 C 409.156 1290.57 402.778 1288.37 394.397 1290.58 z"/><path transform="translate(0,0)" fill="url(#Gradient13)" d="M 1644.13 1237.99 C 1658.95 1254.13 1693.11 1284.76 1710.11 1300.22 C 1710.02 1285.95 1710.12 1271.68 1710.4 1257.41 C 1711.6 1262.04 1711 1271.31 1712.41 1273.88 C 1714.11 1271.88 1713.52 1272.63 1714.33 1269.88 C 1714.62 1284.3 1714.52 1304.39 1715.76 1318.56 C 1696.05 1299.11 1670.66 1274.96 1650.03 1256.65 C 1650.08 1272.07 1650.88 1295.39 1649.87 1310.19 C 1650.72 1313.68 1653.64 1313.45 1656.96 1314.47 C 1653.1 1315.26 1642.19 1315.13 1638.09 1314.58 L 1638.32 1313.48 C 1640.79 1313.19 1642.21 1313.24 1644.44 1312.17 C 1646.18 1307.22 1645.05 1261.25 1644.83 1253.65 C 1644.37 1248 1644.19 1243.64 1644.13 1237.99 z"/><path transform="translate(0,0)" fill="rgb(95,94,97)" d="M 1644.83 1253.65 C 1645.62 1254.45 1646.58 1255.44 1647.74 1256.62 C 1651.45 1271.73 1647.6 1295.6 1649.87 1310.19 C 1650.72 1313.68 1653.64 1313.45 1656.96 1314.47 C 1653.1 1315.26 1642.19 1315.13 1638.09 1314.58 L 1638.32 1313.48 C 1640.79 1313.19 1642.21 1313.24 1644.44 1312.17 C 1646.18 1307.22 1645.05 1261.25 1644.83 1253.65 z"/><path transform="translate(0,0)" fill="url(#Gradient12)" d="M 999.065 1266.12 C 998.667 1257.71 998.471 1245.64 996.869 1237.67 C 1019.64 1258.23 1041.5 1280.14 1064.05 1300.4 C 1064.14 1296.66 1064.08 1289.73 1064.7 1286.32 C 1064.83 1275.67 1065.05 1264.7 1064.89 1254.05 C 1064.69 1240.68 1062.44 1246.65 1057.2 1241.81 C 1058.47 1241.26 1071.23 1241.18 1073.44 1241.36 C 1068.02 1249.25 1068.59 1248.05 1068.73 1257.29 C 1069.1 1278.49 1069 1297.27 1070.24 1318.51 C 1062.27 1311.25 1007.46 1258.34 1004.34 1257.33 L 1002.81 1260.31 L 1001.7 1265.16 L 999.065 1266.12 z"/><path transform="translate(0,0)" fill="rgb(95,94,97)" d="M 1064.7 1286.32 C 1064.83 1275.67 1065.05 1264.7 1064.89 1254.05 C 1064.69 1240.68 1062.44 1246.65 1057.2 1241.81 C 1058.47 1241.26 1071.23 1241.18 1073.44 1241.36 C 1068.02 1249.25 1068.59 1248.05 1068.73 1257.29 C 1066.49 1260.99 1067.27 1286.36 1065.31 1287.93 L 1064.7 1286.32 z"/><path transform="translate(0,0)" fill="url(#Gradient11)" d="M 1449.46 1237.1 C 1459.66 1258.59 1472.84 1281.41 1483.63 1303.54 C 1488.69 1293.59 1493.88 1282.96 1499.24 1273.24 L 1500.7 1277.24 C 1493.7 1290.92 1487.06 1303.54 1482.17 1318.19 C 1471.92 1298.86 1462.13 1279.24 1451.41 1260.19 C 1449.95 1270.25 1444.97 1303.09 1445.24 1311.77 L 1449.66 1314.3 C 1447.22 1316.04 1434.48 1314.87 1431.02 1314.6 L 1430.75 1313.99 C 1434.33 1313.24 1434.66 1313.18 1437.99 1311.73 C 1441.58 1307.51 1447.99 1247.81 1449.46 1237.1 z"/><path transform="translate(0,0)" fill="url(#Gradient10)" d="M 1565.88 1311.23 C 1566.28 1300.8 1566.64 1254.64 1565.56 1246.45 C 1563.83 1243.7 1562.37 1243.47 1559.34 1242.19 L 1558.22 1241.72 C 1560.37 1240.96 1603.33 1240.62 1607.13 1241.38 C 1607.24 1245.1 1607.17 1245.8 1606.66 1249.5 C 1605.15 1248.35 1605.82 1248.77 1605.21 1246.05 C 1600.53 1242.63 1580.07 1244.05 1573.57 1244.1 C 1573.78 1255.24 1573.74 1266.38 1573.45 1277.51 C 1581.86 1276.65 1589.85 1277.52 1598.1 1276.51 C 1598.9 1276.41 1601.53 1271.93 1601.98 1271.07 L 1602.69 1271.59 L 1602.35 1273.1 C 1601.17 1278.45 1600.83 1279.8 1602.58 1285.21 C 1600.2 1283.43 1600.03 1282.75 1598.46 1280.25 L 1596.47 1279.22 C 1588.52 1279.83 1581.6 1279.97 1573.62 1280.07 C 1573.69 1289.81 1574.14 1303.6 1573.58 1312.97 C 1570.31 1311.78 1569.23 1311.71 1565.88 1311.23 z"/><path transform="translate(0,0)" fill="rgb(73,73,77)" d="M 1573.45 1277.51 C 1581.86 1276.65 1589.85 1277.52 1598.1 1276.51 C 1598.9 1276.41 1601.53 1271.93 1601.98 1271.07 L 1602.69 1271.59 L 1602.35 1273.1 C 1601.17 1278.45 1600.83 1279.8 1602.58 1285.21 C 1600.2 1283.43 1600.03 1282.75 1598.46 1280.25 L 1596.47 1279.22 C 1588.42 1278.13 1581.68 1279.42 1573.99 1278.49 L 1573.45 1277.51 z"/><path transform="translate(0,0)" fill="url(#Gradient9)" d="M 1210.84 1314.92 C 1206.28 1315.19 1204.96 1315.47 1200.6 1314.5 C 1206.19 1312.28 1207.77 1307.43 1207.76 1301.58 C 1207.72 1284.25 1207.62 1266.86 1207.4 1249.53 C 1207.35 1245.88 1203.93 1243.93 1201.26 1242.21 L 1200.27 1241.59 C 1204.17 1240.67 1242.55 1240.69 1247.69 1241.07 C 1248.47 1244.93 1248.11 1245.96 1247.56 1249.96 L 1246.83 1250.27 L 1245.65 1245.24 C 1243.01 1243.19 1219.91 1244.05 1214.37 1244.05 C 1214.18 1255.2 1214.17 1266.34 1214.36 1277.49 C 1220.8 1276.96 1237.49 1277.99 1240.89 1274.99 L 1241.99 1271.39 L 1242.9 1271.9 C 1242.83 1276.62 1242.79 1281.07 1242.48 1285.79 C 1240.54 1283.39 1241.23 1284.25 1240.56 1280.8 C 1237.8 1279.44 1235.83 1279.55 1232.78 1279.32 C 1226.48 1280.06 1220.59 1279.95 1214.25 1279.97 C 1214.24 1289.6 1214.65 1303.57 1214.15 1312.85 L 1210.84 1314.92 z"/><path transform="translate(0,0)" fill="rgb(73,73,77)" d="M 1214.36 1277.49 C 1220.8 1276.96 1237.49 1277.99 1240.89 1274.99 L 1241.99 1271.39 L 1242.9 1271.9 C 1242.83 1276.62 1242.79 1281.07 1242.48 1285.79 C 1240.54 1283.39 1241.23 1284.25 1240.56 1280.8 C 1237.8 1279.44 1235.83 1279.55 1232.78 1279.32 C 1229.92 1278.22 1219.05 1278.68 1214.98 1278.49 L 1214.36 1277.49 z"/><path transform="translate(0,0)" fill="rgb(129,128,129)" d="M 1508.35 1255.01 C 1510.26 1248.88 1513.77 1242.1 1516.58 1236.21 C 1519.43 1260.69 1523.74 1288.02 1527.76 1312.45 C 1530.07 1312.97 1532.96 1313.19 1534.43 1314.52 C 1530.9 1315.85 1517.13 1316.14 1513.94 1314.16 C 1515.94 1312.33 1517.49 1311.76 1517.21 1309.29 C 1516.34 1301.83 1512.96 1264.3 1510.38 1260.2 L 1509.37 1259.81 C 1509.56 1256.95 1509.52 1257.97 1508.35 1255.01 z"/><path transform="translate(0,0)" fill="url(#Gradient8)" d="M 1747.17 1243.9 C 1745.43 1246.85 1745.45 1247.62 1742.83 1249.55 C 1742.88 1246.42 1743.09 1243.75 1743.35 1240.63 C 1757.83 1241.46 1775.79 1241.11 1790.59 1241.18 L 1789.68 1241.38 C 1785.43 1242.3 1783.96 1242.3 1779.61 1242.33 L 1779.07 1243.05 L 1780.2 1243.88 C 1783.2 1255.86 1778.47 1295.45 1781.53 1309.37 C 1782.1 1311.98 1785.59 1312.96 1788.39 1314.41 L 1787.54 1314.89 L 1787.53 1313.95 L 1786.56 1314.99 C 1780.56 1315.05 1772.45 1315.4 1766.75 1314.56 C 1777.4 1307.79 1774.03 1300.79 1773.98 1288.7 C 1773.94 1273.78 1773.8 1258.86 1773.57 1243.94 L 1747.17 1243.9 z"/><path transform="translate(0,0)" fill="rgb(129,128,129)" d="M 1095.19 1240.92 C 1102.6 1240.85 1109.78 1240.73 1117.19 1241.11 L 1117.77 1242.01 L 1114.97 1245.05 C 1113.83 1248.85 1133.61 1297.32 1136.83 1303.56 L 1137.71 1305.24 C 1137.75 1308.27 1137.56 1308.33 1138.68 1311.09 C 1138.16 1312.92 1137.86 1314.53 1137.48 1316.39 L 1136.24 1316.79 C 1124.75 1296.23 1115.11 1266.44 1102.51 1245.91 C 1101.51 1244.28 1097.04 1241.91 1095.19 1240.92 z"/><path transform="translate(0,0)" fill="rgb(95,94,97)" d="M 567.262 1314.93 C 562.113 1315.16 559.456 1315.47 554.316 1314.6 L 554.857 1313.73 C 561.16 1312.1 562.167 1309.34 561.994 1303.06 C 561.484 1284.51 562.147 1265.8 561.484 1247.3 C 561.339 1243.25 557.113 1244.02 553.905 1241.64 C 556.074 1240.72 573.86 1241.27 577.591 1241.31 C 575.514 1241.78 567.127 1242.5 566.643 1242.97 L 567.839 1244 C 567.868 1252.77 567.522 1269.18 568.24 1277.44 C 575.744 1276.86 586.705 1277.79 592.484 1276.21 C 593.683 1274.53 594.896 1272.87 596.122 1271.22 C 596.885 1272.79 596.05 1280.66 596.886 1284.57 L 596.236 1285.58 C 594.331 1282.76 594.215 1282.69 592.977 1279.33 C 584.79 1279.99 576.226 1279.9 567.985 1279.96 L 567.896 1312.96 L 567.262 1314.93 z"/><path transform="translate(0,0)" fill="rgb(73,73,77)" d="M 568.24 1277.44 C 575.744 1276.86 586.705 1277.79 592.484 1276.21 C 593.683 1274.53 594.896 1272.87 596.122 1271.22 C 596.885 1272.79 596.05 1280.66 596.886 1284.57 L 596.236 1285.58 C 594.331 1282.76 594.215 1282.69 592.977 1279.33 C 589.065 1278.57 574.348 1278.67 568.983 1278.43 L 568.24 1277.44 z"/><path transform="translate(0,0)" fill="url(#Gradient7)" d="M 816.469 1314.24 C 788.375 1302.22 783.015 1263.82 807.099 1247.62 C 808.34 1250.47 807.367 1249.36 810.314 1250.89 C 798.469 1268.85 796.161 1298.13 816.941 1310.41 C 818.392 1311.25 819.864 1312.06 821.356 1312.83 L 816.469 1314.24 z"/><path transform="translate(0,0)" fill="url(#Gradient6)" d="M 656.145 1313.89 C 628.012 1303.7 623.524 1262.56 647.978 1247.21 L 652.098 1249.29 C 635.97 1268.99 636.619 1297.61 659.325 1311.96 L 656.145 1313.89 z"/><path transform="translate(0,0)" fill="url(#Gradient5)" d="M 1835.27 1254.17 C 1835.92 1255.68 1835.53 1255.07 1836.32 1256.09 C 1837.43 1253.76 1837.16 1254.11 1837.66 1251.49 L 1839.24 1251.24 C 1839.93 1254 1839.83 1252.95 1839.43 1255.8 L 1840.25 1252.53 C 1841.17 1259.47 1842.62 1261.37 1847.98 1265.93 C 1861.79 1277.66 1892.42 1292.12 1868.98 1312.47 L 1867.87 1309.37 C 1881.12 1281.64 1831.44 1282.12 1835.27 1254.17 z"/><path transform="translate(0,0)" fill="rgb(129,128,129)" d="M 125.721 1249.05 C 127.092 1246.13 126.773 1245.6 129.055 1243.92 L 130.328 1245.7 L 131.213 1242.11 C 134.719 1263.3 159.065 1268.66 167.178 1287 C 165.134 1290.34 165.868 1292.31 166.307 1296.03 L 165.278 1297.05 L 162.992 1294.62 L 162.021 1294.93 C 153.358 1276.96 126.568 1266.45 125.721 1249.05 z"/><path transform="translate(0,0)" fill="url(#Gradient4)" d="M 295.328 1243.81 C 297.602 1260.97 293.334 1293.84 297.197 1311.26 C 297.504 1312.64 301.259 1313.52 303.133 1314.21 C 301.143 1315.72 286.052 1314.95 282.568 1314.74 L 282.43 1313.7 C 284.526 1313.22 285.95 1312.8 288.002 1312.14 C 291.609 1306.05 289.409 1257.26 289.211 1246.27 C 289.155 1243.09 284.237 1244.25 282.223 1241.44 C 287.126 1241.04 291.076 1241.17 295.963 1241.26 L 295.328 1243.81 z"/><path transform="translate(0,0)" fill="rgb(95,94,97)" d="M 1376.45 1243.82 C 1379.97 1243.45 1379.83 1242.82 1382 1244.39 L 1382.37 1245.73 C 1383.25 1259.68 1381.17 1297.45 1382.83 1308.55 C 1384.82 1311.97 1385.75 1312.22 1389.26 1314.05 L 1389.02 1314.75 C 1386.37 1314.95 1383.7 1315.06 1381.04 1315.09 C 1378.28 1315.14 1370.96 1315.6 1369.33 1314.02 C 1370.86 1313.4 1375.84 1311.56 1375.91 1309.6 C 1376.68 1287.69 1375.82 1265.76 1376.45 1243.82 z"/><path transform="translate(0,0)" fill="url(#Gradient3)" d="M 738.992 1241.39 C 743.751 1241 757.62 1241.05 761.925 1242.24 L 758.89 1243.23 C 753.12 1249.49 752.629 1307 756.73 1312.36 C 759.493 1312.97 760.635 1313.22 763.18 1314.62 C 756.274 1315.03 747.141 1315.2 740.425 1314.29 C 743.09 1313.42 745.393 1312.56 747.992 1311.57 C 750.965 1306.2 749.771 1255.45 748.385 1246.68 C 745.889 1243.51 743.114 1243.12 738.992 1241.39 z"/><path transform="translate(0,0)" fill="rgb(73,73,77)" d="M 939.372 1241.32 C 944.687 1241.25 958.01 1241.09 962.502 1242.37 C 957.376 1243.71 955.332 1244.69 955.072 1250.49 C 954.475 1265.31 954.469 1280.22 954.457 1295.05 C 954.452 1300.24 953.652 1308.39 957.008 1312.33 C 959.208 1312.9 960.419 1313.22 962.547 1314.06 L 964.189 1314.72 C 956.517 1314.92 948.635 1315.34 941.032 1314.47 L 940.723 1313.89 C 944.038 1313.17 945.152 1313.08 948.217 1311.44 C 950.806 1306.08 950.084 1254.11 948.334 1246.38 C 946.403 1243.65 942.628 1242.64 939.372 1241.32 z"/><path transform="translate(0,0)" fill="url(#Gradient2)" d="M 295.963 1241.26 C 315.709 1241.47 342.919 1241.19 334.176 1270.06 C 334.17 1271.37 333.276 1272.51 332.005 1272.83 C 327.294 1278.1 324.834 1279.26 317.978 1281.11 L 315.001 1281.19 C 314.165 1282.72 313.567 1284.5 311.838 1285 C 308.805 1282.14 308.618 1282.07 304.711 1280.36 L 303.764 1279.95 L 303.1 1277.48 C 308.573 1278.02 318.297 1279 322.417 1274.95 C 329.036 1268.34 330.351 1256.2 323.6 1249.25 C 319.441 1244.97 313.669 1244.42 308.049 1244.25 C 303.818 1244.12 299.569 1243.93 295.328 1243.81 L 295.963 1241.26 z"/><path transform="translate(0,0)" fill="rgb(129,128,129)" d="M 332.005 1272.83 C 330.815 1273.13 329.567 1272.63 328.898 1271.61 C 328.23 1270.58 328.289 1269.24 329.046 1268.27 C 329.803 1267.31 331.09 1266.93 332.249 1267.33 C 333.408 1267.73 334.182 1268.83 334.176 1270.06 C 334.17 1271.37 333.276 1272.51 332.005 1272.83 z"/><path transform="translate(0,0)" fill="rgb(129,128,129)" d="M 1287.22 1259.88 L 1288.29 1260.88 C 1297.44 1269.35 1327.24 1285.83 1322.35 1299.17 L 1321.19 1298.72 L 1320.82 1301.1 L 1319.88 1300.96 L 1319.33 1297.84 L 1317.45 1297.32 C 1306.48 1283.7 1288.24 1275.49 1281.64 1263.82 C 1283.22 1262.57 1285.52 1261.07 1287.22 1259.88 z"/><path transform="translate(0,0)" fill="rgb(73,73,77)" d="M 493.61 1243.07 C 495.791 1241.85 496.458 1242.26 499.068 1242.44 L 499.094 1243.65 C 498.826 1261.8 498.553 1291.34 499.378 1310.51 C 499.9 1311.09 500.422 1311.67 500.943 1312.25 C 503.835 1312.88 504.569 1312.62 506.609 1314.38 C 502.017 1315.32 493.509 1314.86 488.448 1314.77 L 487.103 1313.65 L 486.235 1313.99 L 492.026 1311.55 C 494.966 1304.52 493.707 1254.34 493.61 1243.07 z"/><path transform="translate(0,0)" fill="rgb(73,73,77)" d="M 221.601 1243.07 C 223.795 1241.86 224.457 1242.26 227.069 1242.44 L 227.092 1243.65 C 226.849 1262.07 226.536 1291.1 227.36 1310.51 C 227.882 1311.09 228.405 1311.68 228.928 1312.26 C 231.834 1312.88 232.567 1312.61 234.612 1314.37 C 230.709 1315.27 220.988 1314.84 216.45 1314.77 L 215.119 1313.64 L 214.229 1313.99 L 220.031 1311.55 C 222.979 1304.52 221.703 1254.35 221.601 1243.07 z"/><path transform="translate(0,0)" fill="rgb(95,94,97)" d="M 1137.71 1305.24 C 1141.59 1296.21 1162.82 1251.75 1160.86 1245.57 C 1160.43 1244.21 1158.43 1242.85 1157.39 1241.88 C 1159.81 1240.5 1173.73 1241.06 1177.37 1241.09 C 1175.28 1242.17 1171.68 1244.04 1170.36 1245.91 C 1157.24 1264.56 1149.09 1291.33 1138.68 1311.09 C 1137.56 1308.33 1137.75 1308.27 1137.71 1305.24 z"/><path transform="translate(0,0)" fill="rgb(129,128,129)" d="M 311.838 1285 C 313.567 1284.5 314.165 1282.72 315.001 1281.19 L 317.978 1281.11 C 331.69 1296.5 336.661 1309.23 355.587 1316.13 C 328.812 1314.84 325.814 1305.75 311.838 1285 z"/><path transform="translate(0,0)" fill="url(#Gradient1)" d="M 701.952 1303.36 C 702.105 1293.25 704.313 1287.92 696.224 1281.3 C 699.489 1280.96 711.527 1280.28 714.001 1281.62 C 711.699 1283.7 712.475 1283 709.318 1284.15 C 707.613 1286.87 708.605 1297.44 708.703 1301.75 C 691.642 1316.09 678.368 1321.6 656.145 1313.89 L 659.325 1311.96 C 675.73 1317.07 688.623 1314.18 701.952 1303.36 z"/><path transform="translate(0,0)" fill="rgb(73,73,77)" d="M 167.178 1287 C 167.84 1295.25 168.459 1301.77 162.696 1308.92 C 154.694 1318.84 136.694 1320.11 126.999 1312.05 C 124.229 1309.75 123.932 1306.98 124.166 1303.69 C 124.315 1300.38 124.109 1298.35 125.364 1295.2 C 126.737 1297.41 126.24 1296.6 126.405 1299.14 C 127.896 1322.21 162.948 1319.13 162.021 1294.93 L 162.992 1294.62 L 165.278 1297.05 L 166.307 1296.03 C 165.868 1292.31 165.134 1290.34 167.178 1287 z"/><path transform="translate(0,0)" fill="rgb(73,73,77)" d="M 1345.18 1240.43 C 1365.71 1241.77 1392.72 1241.55 1413.7 1240.66 C 1413.86 1243.91 1413.91 1245.86 1414.53 1249.11 L 1413.66 1250.7 C 1412.25 1248.49 1411.99 1247.94 1410.96 1245.51 C 1405.92 1243.43 1384.84 1241.91 1382.37 1245.73 L 1382 1244.39 C 1379.83 1242.82 1379.97 1243.45 1376.45 1243.82 C 1369.39 1243.78 1355.37 1243.3 1348.98 1244.43 C 1347.48 1246.93 1347.27 1247.84 1346.3 1250.55 L 1345.33 1250.41 C 1345.33 1247.01 1345.31 1243.83 1345.18 1240.43 z"/><path transform="translate(0,0)" fill="rgb(73,73,77)" d="M 190.04 1240.65 C 207.102 1241.11 242.416 1242.27 258.816 1240.31 C 258.852 1243.17 259.277 1248.34 258.37 1250.74 C 256.194 1246.78 257.333 1244.48 254.485 1244.1 C 245.957 1242.96 235.427 1244.4 227.092 1243.65 L 227.069 1242.44 C 224.457 1242.26 223.795 1241.86 221.601 1243.07 C 212.829 1244.7 199.701 1242.3 193.889 1244.8 C 192.695 1246.72 191.526 1248.65 190.381 1250.59 L 188.9 1248.8 L 189.152 1247.89 C 190.087 1244.41 190.231 1244.14 190.04 1240.65 z"/><path transform="translate(0,0)" fill="rgb(73,73,77)" d="M 462.065 1240.7 C 478.566 1241.07 514.4 1242.26 530.813 1240.31 C 530.849 1243.16 531.272 1248.34 530.371 1250.74 C 528.183 1246.77 529.343 1244.48 526.485 1244.1 C 517.954 1242.96 507.434 1244.39 499.094 1243.65 L 499.068 1242.44 C 496.458 1242.26 495.791 1241.85 493.61 1243.07 C 484.649 1244.82 472.315 1242.08 465.966 1244.8 C 464.77 1246.72 463.614 1248.6 462.343 1250.48 L 460.901 1248.45 L 461.15 1247.61 C 462.069 1244.43 462.21 1244.15 462.065 1240.7 z"/><path transform="translate(0,0)" fill="rgb(73,73,77)" d="M 1002.81 1260.31 C 1002.9 1271.38 1002.1 1303.24 1003.42 1311.51 C 1005.73 1313.07 1006.9 1313 1009.67 1313.49 L 1009.31 1314.14 C 1002.76 1315.19 1001.04 1315.38 994.328 1315.26 L 993.627 1314.09 C 995.618 1313.27 996.914 1312.84 998.951 1312.16 C 999.102 1296.81 999.14 1281.47 999.065 1266.12 L 1001.7 1265.16 L 1002.81 1260.31 z"/><path transform="translate(0,0)" fill="rgb(73,73,77)" d="M 807.099 1247.62 C 826.263 1235.83 842.504 1238.64 862.012 1246.58 C 862.655 1249.23 865.589 1260.68 865.471 1262.41 C 863.776 1260.7 863.316 1259.64 862.33 1257.45 C 853.742 1238.36 824.298 1238.13 810.314 1250.89 C 807.367 1249.36 808.34 1250.47 807.099 1247.62 z"/><path transform="translate(0,0)" fill="rgb(73,73,77)" d="M 1322.35 1299.17 C 1319.82 1319.13 1289.58 1322.88 1280.14 1310.35 C 1279.15 1305.9 1278.72 1301.68 1281.25 1297.61 C 1283.09 1299.31 1282 1303.32 1283.9 1308.4 C 1295.07 1320.05 1316.7 1315.9 1317.45 1297.32 L 1319.33 1297.84 L 1319.88 1300.96 L 1320.82 1301.1 L 1321.19 1298.72 L 1322.35 1299.17 z"/><path transform="translate(0,0)" fill="rgb(73,73,77)" d="M 647.978 1247.21 C 666.008 1235.87 683.225 1238.65 701.596 1246.61 L 705.057 1261.49 L 704.29 1262.51 C 698.548 1252.59 699.464 1247.13 686.159 1243.77 C 673.924 1240.68 662.199 1241.95 652.098 1249.29 L 647.978 1247.21 z"/><path transform="translate(0,0)" fill="rgb(73,73,77)" d="M 1281.64 1263.82 C 1279.29 1238.69 1298.38 1238.58 1317.52 1241.18 C 1317.81 1245.26 1318.45 1249.65 1318.95 1253.73 C 1312.53 1241.48 1299.34 1236.72 1288.3 1248.71 C 1285.6 1251.64 1286.44 1256.08 1287.22 1259.88 C 1285.52 1261.07 1283.22 1262.57 1281.64 1263.82 z"/><path transform="translate(0,0)" fill="rgb(73,73,77)" d="M 821.356 1312.83 C 849.789 1318.27 860.809 1310.52 870.331 1284.51 C 869.296 1290.81 868.53 1296.86 866.451 1302.91 C 851.576 1318.09 836.061 1320.13 816.469 1314.24 L 821.356 1312.83 z"/><path transform="translate(0,0)" fill="rgb(73,73,77)" d="M 125.721 1249.05 C 127.481 1225.83 144.97 1225.94 163.043 1228.88 C 163.054 1231.62 163.535 1238.37 162.489 1240.27 C 152.987 1223.88 139.387 1226.22 131.213 1242.11 L 130.328 1245.7 L 129.055 1243.92 C 126.773 1245.6 127.092 1246.13 125.721 1249.05 z"/><path transform="translate(0,0)" fill="rgb(73,73,77)" d="M 1615.88 1296.37 L 1607.33 1314.84 C 1590.85 1315.29 1574.36 1315.29 1557.88 1314.86 C 1561.02 1313.94 1563.8 1313.59 1565.88 1311.23 C 1569.23 1311.71 1570.31 1311.78 1573.58 1312.97 C 1596.58 1312.86 1602.31 1316.68 1615.88 1296.37 z"/><path transform="translate(0,0)" fill="rgb(73,73,77)" d="M 1710.4 1257.41 C 1710.37 1253.75 1710.77 1247.39 1709.25 1244.43 C 1706.97 1243.49 1705.02 1242.67 1702.78 1241.62 C 1706.21 1241.21 1718.95 1240.52 1721.64 1241.88 C 1717.62 1244.35 1715.56 1242.38 1714.98 1245.53 C 1713.7 1252.42 1714.22 1262.94 1714.33 1269.88 C 1713.52 1272.63 1714.11 1271.88 1712.41 1273.88 C 1711 1271.31 1711.6 1262.04 1710.4 1257.41 z"/><path transform="translate(0,0)" fill="rgb(73,73,77)" d="M 1834.09 1312.07 C 1833.43 1305.28 1833.08 1300.95 1833.14 1294.13 C 1833.91 1297.2 1835.3 1303.66 1836.89 1306.14 C 1844.6 1318.19 1857.63 1316.21 1867.87 1309.37 L 1868.98 1312.47 C 1856.01 1320.34 1847.15 1317.58 1834.09 1312.07 z"/><path transform="translate(0,0)" fill="rgb(73,73,77)" d="M 1835.27 1254.17 C 1842.49 1236.81 1874.88 1231.33 1870.72 1252.15 C 1868.69 1249.08 1868.32 1243.64 1863.97 1242.49 C 1854.55 1240.01 1844.78 1243.66 1840.25 1252.53 L 1839.43 1255.8 C 1839.83 1252.95 1839.93 1254 1839.24 1251.24 L 1837.66 1251.49 C 1837.16 1254.11 1837.43 1253.76 1836.32 1256.09 C 1835.53 1255.07 1835.92 1255.68 1835.27 1254.17 z"/><path transform="translate(0,0)" fill="rgb(73,73,77)" d="M 1255.32 1298.77 C 1253.1 1304.04 1250.78 1309.25 1248.95 1314.66 C 1237.56 1315.03 1222.18 1315.65 1210.84 1314.92 L 1214.15 1312.85 C 1226.17 1312.97 1234.78 1313.57 1246.45 1310.25 C 1249.81 1306.18 1252.24 1303.09 1255.32 1298.77 z"/><path transform="translate(0,0)" fill="rgb(73,73,77)" d="M 600.591 1310.41 C 603.81 1306.31 606.774 1301.85 609.795 1298.01 C 607.396 1303.62 605.1 1309.25 602.276 1314.66 C 591.137 1315.03 578.398 1315.46 567.262 1314.93 L 567.896 1312.96 C 578.966 1312.92 589.876 1313.38 600.591 1310.41 z"/><path transform="translate(0,0)" fill="rgb(73,73,77)" d="M 602.74 1240.5 C 602.76 1243.92 602.698 1247.34 602.553 1250.75 C 599.948 1248.93 601.335 1245.33 599.649 1244.93 C 592.059 1243.14 575.541 1244.08 567.839 1244 L 566.643 1242.97 C 567.127 1242.5 575.514 1241.78 577.591 1241.31 C 585.029 1241.15 595.563 1241.23 602.74 1240.5 z"/><path transform="translate(0,0)" fill="rgb(73,73,77)" d="M 1790.59 1241.18 C 1795.9 1240.95 1804.71 1239.69 1809.36 1241.26 C 1812.17 1244.27 1811.48 1246.37 1810.63 1250.2 C 1809.6 1247.77 1809.05 1246.31 1808.25 1243.79 L 1780.2 1243.88 L 1779.07 1243.05 L 1779.61 1242.33 C 1783.96 1242.3 1785.43 1242.3 1789.68 1241.38 L 1790.59 1241.18 z"/><path transform="translate(0,0)" fill="rgb(73,73,77)" d="M 1508.35 1255.01 C 1509.52 1257.97 1509.56 1256.95 1509.37 1259.81 C 1506.75 1265.02 1502.96 1272.04 1500.7 1277.24 L 1499.24 1273.24 C 1502.21 1267.13 1505.24 1261.05 1508.35 1255.01 z"/></svg>