
<svg version="1.1" xmlns="http://www.w3.org/2000/svg" style="display: block;" viewBox="0 0 2000 2000" width="500" height="500" preserveAspectRatio="none"><defs><linearGradient id="Gradient1" gradientUnits="userSpaceOnUse" x1="576.434" y1="1111.85" x2="614.304" y2="1204.27"><stop class="stop0" offset="0" stop-opacity="1" stop-color="rgb(3,0,0)"/><stop class="stop1" offset="1" stop-opacity="1" stop-color="rgb(33,38,37)"/></linearGradient></defs><path transform="translate(0,0)" fill="rgb(255,255,255)" d="M 0 0 L 2000 0 L 2000 2000 L 0 2000 L 0 0 z"/><path transform="translate(0,0)" fill="rgb(203,156,68)" d="M 991.708 394.637 C 995.176 395.567 1016.45 410.994 1020.94 414.087 L 1107.82 473.877 L 1460.87 716.654 L 1539.14 770.624 C 1546.77 775.884 1575.43 792.611 1577.63 800.353 C 1576.48 803.268 1577.43 802.21 1574.74 803.685 C 1562.37 797.912 1544.08 783.357 1532.13 775.176 L 1405.73 688.682 L 994.126 405.685 C 966.889 422.852 932.751 448.644 906.044 467.635 L 750.587 577.929 L 542.394 725.712 C 506.655 751.097 465.68 778.895 431.102 805.153 C 429.635 873.666 430.939 947.42 430.939 1016.49 L 430.92 1429.42 C 485.805 1428.35 545.241 1429.52 600.5 1429.55 L 1315.5 1429.57 L 1491.55 1429.57 C 1506.06 1429.56 1558.9 1428.58 1569.18 1430.63 C 1570.7 1432.95 1570.38 1431.71 1569.84 1434.48 C 1567.86 1436.29 1567.61 1436.99 1564.48 1437.01 C 1552.97 1437.06 1541.26 1436.96 1529.76 1436.95 L 1455.08 1436.95 L 1224.79 1436.96 L 720.23 1436.97 C 621.509 1436.97 521.819 1436.27 423.163 1437.44 C 422.603 1392.86 423.27 1346.44 423.277 1301.74 C 424.039 1135.31 423.775 968.888 422.485 802.468 C 433.557 792.86 457.951 776.581 470.82 767.415 L 562.532 702.084 L 864.036 487.322 L 945.721 429.278 C 959.054 419.805 980.81 405.909 991.708 394.637 z"/><path transform="translate(0,0)" fill="rgb(30,30,29)" d="M 1087.72 936.961 C 1100.84 937.17 1113.96 937.17 1127.07 936.96 C 1124.16 940.252 1118.78 946.607 1118.26 951.041 C 1115.34 975.798 1116.31 1004.93 1116.31 1029.8 L 1116.38 1173.13 C 1116.54 1191.62 1114.72 1203.05 1127.48 1215.56 C 1110.65 1215.89 1093.81 1215.96 1076.98 1215.78 C 1080.72 1211.62 1085.18 1207.5 1085.94 1201.67 C 1089.25 1176.3 1088.1 1148.84 1088.1 1123.27 L 1088.04 976.5 C 1088.05 965.772 1087.78 954.753 1087.64 944.004 C 1083.39 954.141 1078.68 964.004 1073.85 973.872 C 1038.31 1046.43 1004.34 1119.94 968.325 1192.24 C 971.685 1200.03 975.902 1207.97 979.761 1215.57 C 969.165 1216 958.573 1215.89 947.968 1215.88 C 940.078 1196.35 926.206 1169.75 916.684 1149.99 L 863.073 1038.69 C 852.83 1017.41 841.303 994.54 831.871 973.037 C 834.287 1018.79 831.603 1065.43 832.684 1111.17 C 833.439 1143.11 827.755 1190.14 849.05 1215.86 C 836.843 1215.94 824.635 1215.89 812.428 1215.71 C 825.589 1201.64 828.29 1179.77 828.654 1161.17 C 829.459 1120.02 828.995 1078.67 829.018 1037.5 L 829.115 992.992 C 829.191 962.124 828.128 965.167 814.069 937.018 L 845.703 937.207 C 852.853 956.154 871.415 990.52 880.488 1010.16 C 907.904 1069.52 939.361 1129.14 966.287 1188.66 C 974.292 1174.73 983.188 1154.73 990.418 1139.71 L 1032.8 1051.66 L 1068.46 978.027 C 1074.06 966.46 1083.37 948.61 1087.72 936.961 z"/><path transform="translate(0,0)" fill="rgb(30,30,29)" d="M 658.201 937.092 L 688.261 937.032 C 713.358 1014.84 742.102 1092.12 768.043 1169.7 C 772.97 1184.43 781.029 1205.35 792.248 1215.83 L 744.176 1215.98 C 748.874 1192.7 734.501 1155.53 722.828 1135.78 C 698.404 1101.36 663.557 1077.25 622.182 1100.39 C 621.973 1098.36 621.99 1095.8 621.937 1093.72 L 620.23 1092.59 C 620.8 1089.07 630.661 1061.29 632.458 1056.04 L 664.078 964.167 C 667.066 956.753 661.192 945.483 658.201 937.092 z"/><path transform="translate(0,0)" fill="rgb(255,255,255)" d="M 664.078 964.167 L 666.711 966.553 L 668.348 967.002 C 670.728 974.188 673.177 981.246 675.763 988.358 C 693.064 1035.94 708.001 1084.64 725.353 1132.18 L 725.649 1133.64 C 724.981 1134.13 723.33 1135.25 722.828 1135.78 C 698.404 1101.36 663.557 1077.25 622.182 1100.39 C 621.973 1098.36 621.99 1095.8 621.937 1093.72 L 620.23 1092.59 C 620.8 1089.07 630.661 1061.29 632.458 1056.04 L 664.078 964.167 z"/><path transform="translate(0,0)" fill="rgb(30,30,29)" d="M 664.078 964.167 L 666.711 966.553 C 651.368 1009.86 637.331 1053.86 621.858 1097.03 C 653.343 1077.98 689.259 1092 712.36 1117.31 C 716.347 1121.68 720.748 1128.93 725.353 1132.18 L 725.649 1133.64 C 724.981 1134.13 723.33 1135.25 722.828 1135.78 C 698.404 1101.36 663.557 1077.25 622.182 1100.39 C 621.973 1098.36 621.99 1095.8 621.937 1093.72 L 620.23 1092.59 C 620.8 1089.07 630.661 1061.29 632.458 1056.04 L 664.078 964.167 z"/><path transform="translate(0,0)" fill="rgb(30,30,29)" d="M 1278.93 936.404 C 1282.39 935.862 1291.65 935.716 1295.3 935.85 C 1339.83 937.482 1369.08 954.31 1398.94 985.358 C 1395.14 997.274 1391.41 1011.06 1388.31 1023.17 C 1385.92 1019.75 1383.33 1015.44 1381.24 1011.8 C 1362.1 978.496 1332.09 947.944 1292.7 941.39 C 1269.17 937.474 1243.4 943.963 1224.07 958.223 C 1188.67 984.347 1175.63 1032.07 1178.11 1074.31 C 1181.54 1138.33 1224.56 1197.08 1290.23 1206.32 C 1314.92 1209.8 1342.5 1206.6 1362.78 1190.87 C 1380.69 1176.97 1385.94 1157.78 1388.47 1136.25 C 1389.82 1128.58 1389.2 1114.03 1386.03 1106.9 C 1372.76 1077.1 1338.92 1092 1320.92 1084.72 L 1321.05 1083.88 C 1355.45 1082.37 1393.09 1083.38 1427.84 1083.08 C 1419.18 1092.41 1419.26 1101.54 1417.63 1113.55 C 1409.8 1171.21 1363.87 1209.69 1306.47 1216.2 C 1269.17 1220.34 1231.75 1209.6 1202.33 1186.32 C 1173.46 1163.12 1155.02 1127.11 1151.22 1090.48 C 1147.49 1053.56 1158.47 1016.66 1181.78 987.785 C 1206.68 957.504 1240.17 940.321 1278.93 936.404 z"/><path transform="translate(0,0)" fill="url(#Gradient1)" d="M 620.23 1092.59 L 621.937 1093.72 C 621.99 1095.8 621.973 1098.36 622.182 1100.39 C 615.867 1111.41 587.223 1190.03 591.196 1206.15 C 592.266 1210.49 597.867 1213.24 601.811 1215.62 C 588.587 1215.8 575.361 1215.87 562.135 1215.84 C 582.793 1202.52 589.854 1181.4 597.459 1158.99 C 604.981 1136.83 612.761 1114.75 620.23 1092.59 z"/></svg>