<?xml version="1.0" standalone="no"?>
<!DOCTYPE svg PUBLIC "-//W3C//DTD SVG 20010904//EN"
 "http://www.w3.org/TR/2001/REC-SVG-20010904/DTD/svg10.dtd">
<svg version="1.0" xmlns="http://www.w3.org/2000/svg"
 width="500.000000pt" height="500.000000pt" viewBox="0 0 500.000000 500.000000"
 preserveAspectRatio="xMidYMid meet">

<g transform="translate(0.000000,500.000000) scale(0.100000,-0.100000)"
fill="#000000" stroke="none">
<path d="M1655 2628 c4 -24 -6 -67 -34 -152 -23 -66 -39 -121 -37 -124 2 -2
21 49 42 112 21 64 41 112 45 108 8 -8 135 -382 135 -397 0 -5 10 -32 23 -60
12 -27 25 -74 28 -102 l6 -53 59 0 59 0 -20 28 c-11 15 -54 126 -96 247 -41
121 -91 266 -111 323 l-36 102 -35 0 c-33 0 -34 -1 -28 -32z"/>
<path d="M2040 2653 c1 -4 7 -19 15 -33 21 -38 21 -565 0 -617 -8 -19 -15 -37
-15 -39 0 -2 18 -4 39 -4 l39 0 -16 33 c-14 27 -17 72 -19 297 l-3 265 68
-135 c37 -74 102 -208 145 -297 l78 -163 40 0 40 0 -16 30 c-15 29 -14 32 40
140 30 60 55 113 54 117 0 5 -26 -43 -57 -104 l-57 -113 -150 313 -151 312
-37 3 c-20 2 -37 0 -37 -5z"/>
<path d="M2705 2630 c-19 -37 -19 -54 0 -20 13 22 14 -11 15 -287 0 -179 -4
-323 -10 -337 -9 -26 -9 -26 46 -26 50 0 55 2 48 18 -5 9 -9 159 -9 332 0 173
4 323 9 333 7 15 3 17 -38 17 -40 0 -47 -3 -61 -30z"/>
<path d="M3210 2651 c98 -18 165 -64 226 -155 21 -32 35 -44 38 -35 2 8 9 28
14 46 10 30 8 34 -26 64 -60 53 -135 82 -221 85 -65 3 -69 2 -31 -5z"/>
<path d="M3110 2640 c-18 -12 -2 -12 25 0 13 6 15 9 5 9 -8 0 -22 -4 -30 -9z"/>
<path d="M3033 2601 c-107 -78 -157 -178 -151 -306 6 -139 77 -248 196 -302
66 -31 170 -41 239 -24 111 28 202 121 223 229 6 32 14 65 16 75 5 16 -5 17
-128 15 -106 -1 -119 -2 -65 -7 86 -7 107 -28 107 -102 0 -95 -42 -158 -123
-185 -134 -44 -305 40 -368 180 -31 71 -41 170 -24 249 17 81 41 124 98 172
49 42 36 47 -20 6z"/>
<path d="M2607 2424 c-31 -63 -57 -118 -56 -122 0 -4 27 46 60 112 33 65 59
120 57 122 -2 2 -30 -48 -61 -112z"/>
<path d="M1550 2273 c0 -6 -3 -20 -7 -30 -7 -17 -6 -17 11 -1 18 18 36 24 91
31 24 3 22 4 -10 5 -22 1 -47 -2 -55 -8 -9 -6 -17 -5 -22 3 -6 9 -8 9 -8 0z"/>
<path d="M1705 2253 c17 -8 46 -29 65 -47 l35 -31 -30 33 c-28 32 -74 62 -92
62 -4 -1 6 -8 22 -17z"/>
<path d="M1505 2138 c-32 -97 -49 -132 -76 -159 -19 -19 -19 -19 29 -18 26 0
41 3 35 6 -21 8 -15 64 17 158 16 49 28 90 26 92 -2 3 -16 -33 -31 -79z"/>
</g>
</svg>
