<?xml version="1.0" standalone="no"?>
<!DOCTYPE svg PUBLIC "-//W3C//DTD SVG 20010904//EN"
 "http://www.w3.org/TR/2001/REC-SVG-20010904/DTD/svg10.dtd">
<svg version="1.0" xmlns="http://www.w3.org/2000/svg"
 width="500.000000pt" height="500.000000pt" viewBox="0 0 500.000000 500.000000"
 preserveAspectRatio="xMidYMid meet">

<g transform="translate(0.000000,500.000000) scale(0.100000,-0.100000)"
fill="#000000" stroke="none">
<path d="M0 2500 l0 -2500 2500 0 2500 0 0 2500 0 2500 -2500 0 -2500 0 0
-2500z m2515 1360 c4 -6 2 -9 -3 -8 -5 2 -208 -138 -451 -311 l-441 -314 0
-493 0 -494 898 -3 897 -2 -902 -3 -903 -2 1 503 0 502 447 317 c246 174 448
317 449 317 1 1 5 -4 8 -9z m165 -116 c0 -2 -27 14 -60 36 -33 22 -60 43 -60
46 0 2 27 -14 60 -36 33 -22 60 -43 60 -46z m160 -110 c0 -2 -27 14 -60 36
-33 22 -60 43 -60 46 0 2 27 -14 60 -36 33 -22 60 -43 60 -46z m160 -110 c0
-2 -34 18 -75 46 -41 28 -75 53 -75 56 0 2 34 -18 75 -46 41 -28 75 -53 75
-56z m130 -90 c0 -2 -27 14 -60 36 -33 22 -60 43 -60 46 0 2 27 -14 60 -36 33
-22 60 -43 60 -46z m160 -110 c0 -2 -27 14 -60 36 -33 22 -60 43 -60 46 0 2
27 -14 60 -36 33 -22 60 -43 60 -46z m130 -90 c0 -3 -20 9 -45 26 -25 17 -45
33 -45 36 0 3 20 -9 45 -26 25 -17 45 -33 45 -36z m-1325 -411 c37 -109 74
-208 81 -220 14 -22 13 -23 -26 -23 -37 0 -40 2 -40 28 0 16 -11 50 -25 77
-13 27 -22 52 -20 55 7 12 -67 222 -75 213 -4 -4 -18 -39 -30 -78 -13 -38 -25
-76 -28 -82 -3 -9 7 -13 32 -13 36 0 103 -26 93 -37 -3 -2 -17 3 -30 12 -16
10 -40 15 -64 13 -38 -3 -38 -4 -65 -78 -15 -41 -24 -83 -22 -92 4 -14 -1 -18
-21 -18 l-26 0 20 26 c23 30 135 359 133 392 -1 17 4 22 22 22 21 0 29 -16 91
-197z m275 0 l94 -196 95 196 94 197 34 0 c30 0 33 -2 23 -19 -6 -12 -10 -95
-10 -201 0 -106 4 -189 10 -201 10 -17 7 -19 -27 -19 l-38 0 2 202 2 203 -89
-182 c-57 -119 -87 -189 -83 -202 4 -17 1 -21 -19 -21 -22 0 -34 19 -111 178
l-85 177 -1 -158 c-1 -92 3 -166 9 -178 10 -17 7 -19 -20 -19 -29 0 -30 1 -18
23 8 14 14 82 16 188 4 139 2 171 -12 197 l-17 32 29 0 c27 0 33 -10 122 -197z
m732 161 c33 -24 42 -36 40 -55 -5 -41 -17 -40 -49 4 -72 104 -206 102 -267
-3 -16 -27 -21 -52 -21 -110 0 -64 4 -82 28 -122 38 -65 96 -98 170 -98 75 0
115 33 123 100 6 59 -4 73 -63 81 -41 5 -36 7 38 8 l86 1 -8 -47 c-19 -99 -85
-155 -190 -161 -59 -4 -74 -1 -118 23 -126 69 -156 234 -63 337 56 62 95 79
179 75 62 -2 78 -7 115 -33z m-2692 -1071 c0 -13 -3 -14 -12 -5 -20 20 -56 14
-63 -9 -6 -17 3 -32 39 -68 70 -71 60 -126 -21 -119 -32 3 -38 7 -40 28 l-3
25 10 -23 c8 -19 16 -23 42 -20 52 5 50 38 -6 98 -51 54 -54 65 -29 92 22 24
83 25 83 1z m240 -21 c0 -4 -18 -6 -41 -4 l-40 4 3 -91 c2 -76 0 -91 -12 -91
-12 0 -14 15 -12 91 l3 92 -40 -6 c-23 -3 -41 -1 -41 4 0 5 41 9 90 9 50 0 90
-3 90 -8z m168 -8 c28 -19 29 -58 1 -77 -20 -15 -20 -15 16 -56 25 -27 32 -41
22 -41 -8 0 -34 23 -57 50 -41 50 -42 50 -16 50 19 0 27 6 32 27 8 30 -15 53
-54 53 -23 0 -23 -1 -20 -90 2 -75 0 -90 -12 -90 -12 0 -15 17 -15 95 l0 95
40 0 c22 0 51 -7 63 -16z m244 -81 c43 -92 44 -93 20 -93 -13 0 -20 4 -17 10
3 5 1 19 -5 30 -16 30 -87 29 -99 -2 -5 -13 -7 -26 -4 -30 2 -5 -4 -8 -14 -8
-17 0 -14 12 26 95 24 52 46 94 47 92 1 -1 22 -44 46 -94z m268 89 c0 -4 -18
-6 -41 -4 l-40 4 3 -91 c2 -76 0 -91 -12 -91 -12 0 -14 15 -12 91 l3 92 -40
-6 c-23 -3 -41 -1 -41 4 0 5 41 9 90 9 50 0 90 -3 90 -8z m180 -1 c0 -5 -20
-6 -45 -3 l-45 5 0 -42 c0 -40 1 -41 35 -41 19 0 35 -4 35 -8 0 -4 -16 -6 -35
-4 -35 4 -35 4 -35 -37 0 -39 1 -41 31 -41 17 0 39 5 49 10 16 8 18 8 14 -5
-5 -11 -21 -15 -63 -15 l-56 0 0 95 0 95 58 0 c31 0 57 -4 57 -9z m231 -1 c10
-6 19 -17 19 -25 0 -11 -5 -10 -20 5 -21 21 -69 26 -100 10 -23 -13 -41 -65
-34 -99 11 -44 33 -61 79 -61 49 0 70 18 63 55 -4 19 -1 25 12 25 13 0 16 -7
12 -30 -6 -40 -36 -60 -93 -60 -40 0 -51 4 -73 31 -56 67 -13 159 74 159 23 0
50 -5 61 -10z m162 3 c-9 -3 -13 -31 -13 -88 0 -57 4 -85 13 -88 6 -3 1 -6
-13 -6 -25 -1 -25 -1 -25 94 0 95 0 95 25 94 14 0 19 -3 13 -6z m238 -3 c10
-6 19 -17 19 -25 0 -11 -5 -10 -20 5 -22 22 -69 26 -100 10 -45 -24 -44 -126
0 -150 33 -18 88 -12 110 12 11 12 20 17 20 10 0 -21 -45 -42 -91 -42 -40 0
-51 4 -73 31 -56 67 -13 159 74 159 23 0 50 -5 61 -10z m262 3 c-9 -3 -13 -31
-13 -88 0 -57 4 -85 13 -88 6 -3 1 -6 -13 -6 -25 -1 -25 -1 -25 94 0 95 0 95
25 94 14 0 19 -3 13 -6z m180 -70 l78 -78 -3 78 c-3 70 -1 77 16 77 15 0 16
-3 6 -14 -7 -10 -10 -43 -8 -95 2 -45 1 -81 -2 -81 -3 0 -37 32 -75 70 -38 39
-73 70 -78 70 -5 0 -7 -32 -5 -70 3 -63 1 -70 -16 -70 -15 0 -16 3 -6 15 8 10
11 41 8 95 -2 44 -1 80 2 80 2 0 40 -35 83 -77z m210 50 c3 -16 15 -50 27 -78
l22 -50 30 64 c16 36 26 71 24 78 -4 9 3 13 21 13 19 0 23 -3 15 -13 -6 -6
-29 -50 -51 -96 l-41 -84 -41 89 c-23 49 -46 92 -53 96 -6 5 0 8 15 8 21 0 28
-6 32 -27z m327 19 c0 -4 -18 -6 -40 -4 l-40 4 0 -42 0 -42 35 4 c21 2 35 0
35 -7 0 -7 -14 -9 -35 -7 -35 4 -35 4 -35 -37 0 -40 1 -41 33 -41 18 0 39 6
46 13 11 10 13 9 9 -3 -3 -11 -22 -16 -69 -17 -35 -1 -58 0 -51 3 16 7 17 155
0 172 -9 9 2 12 50 12 34 0 62 -3 62 -8z m180 -8 c0 -13 -3 -14 -14 -4 -22 17
-61 9 -64 -15 -1 -13 11 -30 38 -49 45 -34 56 -56 40 -86 -16 -29 -93 -25 -98
5 -4 19 -3 19 10 2 19 -26 72 -20 76 8 2 14 -10 30 -37 50 -46 34 -57 56 -41
85 14 26 90 30 90 4z m230 8 c0 -4 -16 -6 -36 -4 l-35 4 3 -91 3 -91 -25 1
c-14 0 -19 3 -12 6 8 3 12 31 12 90 l0 85 -40 -4 c-22 -2 -40 0 -40 4 0 5 38
8 85 8 47 0 85 -4 85 -8z m139 -69 l39 -78 38 77 c22 46 41 73 45 66 4 -6 11
-39 14 -72 4 -34 11 -71 16 -83 7 -19 5 -23 -10 -23 -16 0 -20 11 -26 73 l-7
72 -38 -75 -38 -75 -33 68 c-37 74 -47 71 -48 -15 -1 -43 -3 -48 -23 -48 -14
0 -18 3 -12 8 6 4 17 46 24 95 7 48 14 87 16 87 2 0 21 -35 43 -77z m351 69
c0 -4 -18 -6 -40 -4 l-40 4 0 -41 c0 -40 1 -41 35 -41 19 0 35 -4 35 -8 0 -4
-16 -6 -35 -4 -35 4 -35 4 -35 -37 0 -40 1 -41 33 -41 18 0 39 6 46 13 11 10
13 9 9 -3 -3 -11 -22 -16 -64 -18 l-59 -3 0 96 0 95 58 0 c31 0 57 -3 57 -8z
m213 -102 l39 -35 -4 73 c-2 59 0 72 12 72 13 0 14 -16 12 -96 l-3 -96 -32 28
c-18 16 -54 49 -80 74 l-48 45 3 -73 c2 -59 0 -72 -12 -72 -13 0 -14 16 -12
96 l3 97 42 -39 c23 -22 59 -55 80 -74z m297 102 c0 -4 -18 -6 -40 -4 l-40 4
0 -79 c0 -48 5 -84 12 -91 9 -9 7 -12 -12 -12 -25 0 -25 0 -22 91 l3 91 -35
-4 c-20 -2 -36 0 -36 4 0 4 38 8 85 8 47 0 85 -3 85 -8z m149 -9 c0 -11 -3
-13 -6 -5 -7 17 -48 15 -64 -4 -12 -14 -7 -21 34 -56 71 -60 61 -113 -20 -106
-32 3 -38 7 -40 28 l-3 25 10 -23 c8 -19 16 -23 42 -20 50 5 49 37 -1 78 -61
48 -53 100 16 100 25 0 33 -4 32 -17z m-1919 -403 c0 -6 -93 -10 -260 -10
-167 0 -260 4 -260 10 0 6 93 10 260 10 167 0 260 -4 260 -10z"/>
<path d="M996 1828 c-21 -49 -21 -48 14 -48 33 0 36 10 16 55 l-14 30 -16 -37z"/>
</g>
</svg>
