
<svg version="1.1" xmlns="http://www.w3.org/2000/svg" style="display: block;" viewBox="0 0 2000 2000" width="500" height="500" preserveAspectRatio="none"><defs><linearGradient id="Gradient1" gradientUnits="userSpaceOnUse" x1="574.223" y1="1125.37" x2="621.085" y2="1193.75"><stop class="stop0" offset="0" stop-opacity="1" stop-color="rgb(2,0,0)"/><stop class="stop1" offset="1" stop-opacity="1" stop-color="rgb(29,33,33)"/></linearGradient></defs><path transform="translate(0,0)" fill="rgb(243,242,236)" d="M 0 0 L 2000 0 L 2000 2000 L 0 2000 L 0 0 z"/><path transform="translate(0,0)" fill="rgb(200,153,68)" d="M 991.625 394.655 C 996.433 395.761 1086.77 459.345 1100.23 468.599 L 1467.08 720.916 L 1539.26 770.43 C 1546.4 775.304 1573.88 793.266 1578.02 798.191 C 1577.61 801.333 1577.48 801.121 1575.39 803.588 C 1574.55 803.586 1573.72 803.585 1572.88 803.584 C 1564.6 797.99 1547.02 785.866 1539.83 780.919 L 1434 708.116 L 994.109 405.597 C 959.677 428.281 922.841 455.725 888.938 479.815 L 705.091 610.33 L 526.349 737.181 C 495.95 758.768 460.32 782.854 431.147 805.25 C 430.506 828.94 430.986 854.692 430.984 878.501 L 430.977 1015.98 L 430.972 1429.34 L 602.5 1429.35 L 1242.66 1429.37 L 1453.85 1429.38 C 1468.02 1429.38 1565.05 1428.09 1569.82 1431.13 C 1570.35 1434.5 1570.61 1432.96 1569.08 1435.94 C 1567.23 1437.11 1567.02 1437.15 1564.75 1437.14 C 1526.94 1436.97 1489 1437.03 1451.2 1437.03 L 1215.04 1437.03 L 423.145 1437.45 L 423.273 1038.4 C 423.277 962.7 425.137 877.981 422.34 802.863 C 425.974 798.698 449.845 782.24 455.854 777.976 L 525.336 728.557 L 854.285 494.253 L 942.747 431.373 C 956.506 421.604 980.544 406.202 991.625 394.655 z"/><path transform="translate(0,0)" fill="rgb(29,28,28)" d="M 1087.73 936.903 C 1100.88 937.156 1114.02 937.166 1127.17 936.933 C 1124.79 939.577 1118.52 947.089 1118.34 950.652 C 1114.37 1031.76 1116.25 1114.26 1117.38 1195.55 C 1117.51 1205.07 1121.28 1209.48 1127.61 1215.59 C 1110.68 1215.92 1093.74 1216 1076.81 1215.81 L 1078.15 1214.35 C 1081.42 1210.86 1085.22 1206.9 1085.9 1201.94 C 1089.21 1177.63 1088.07 1148.02 1088.07 1123.41 L 1088.01 975.5 C 1088.02 965.093 1087.77 954.404 1087.64 943.979 C 1067.23 992.64 1040.16 1041.36 1018.09 1089.66 C 1002.52 1123.72 985.201 1158.79 968.321 1192.28 C 971.682 1200.01 975.971 1208.05 979.816 1215.61 C 969.146 1216.02 958.572 1215.92 947.898 1215.89 C 940.485 1196.45 925.841 1170.21 916.859 1150.49 C 890.056 1091.66 857.769 1031.75 831.774 972.876 C 833.207 990.601 832.746 1012.39 832.75 1030.38 L 832.739 1118.93 C 832.741 1148.78 829.239 1192.07 849.157 1215.87 L 812.381 1215.83 C 833.354 1192.65 828.957 1143.09 828.977 1113.18 L 828.993 1028.99 C 828.996 1010.58 829.482 988.141 828.751 969.83 C 828.564 965.156 816.83 942.66 814.006 937.016 L 845.749 937.061 C 848.412 944.408 854.486 956.176 858.015 963.52 L 880.995 1011.25 C 908.914 1069.14 939.884 1130.42 966.298 1188.66 C 973.403 1176.45 982.598 1155.89 989.033 1142.52 L 1029.74 1057.98 L 1067.45 980.045 C 1073.45 967.661 1082.97 949.386 1087.73 936.903 z"/><path transform="translate(0,0)" fill="rgb(29,28,28)" d="M 658.158 937.088 L 688.255 937.006 C 713.201 1013.61 741.166 1089.68 766.766 1166.1 C 771.897 1181.42 780.542 1205.22 792.355 1215.81 L 744.091 1215.99 C 748.953 1191.71 734.29 1155.88 722.401 1135.03 C 698.004 1101.49 663.199 1077.21 622.288 1100.43 C 621.78 1096.39 621.764 1096.42 620.178 1092.65 C 621.034 1087.95 630.964 1060.41 633.17 1053.97 L 664.073 964.16 C 667.047 956.71 661.172 945.491 658.158 937.088 z"/><path transform="translate(0,0)" fill="rgb(243,242,236)" d="M 664.073 964.16 L 666.755 966.652 L 668.337 967.062 C 674.81 985.686 724.618 1126.22 724.385 1131.11 L 722.401 1135.03 C 698.004 1101.49 663.199 1077.21 622.288 1100.43 C 621.78 1096.39 621.764 1096.42 620.178 1092.65 C 621.034 1087.95 630.964 1060.41 633.17 1053.97 L 664.073 964.16 z"/><path transform="translate(0,0)" fill="rgb(29,28,28)" d="M 664.073 964.16 L 666.755 966.652 C 656.667 995.309 646.806 1024.05 637.172 1052.86 C 633.003 1065.1 626.545 1085.88 621.391 1097.16 C 653.782 1078.02 689.201 1091.64 712.911 1117.93 C 716.135 1121.5 720.747 1128.76 724.385 1131.11 L 722.401 1135.03 C 698.004 1101.49 663.199 1077.21 622.288 1100.43 C 621.78 1096.39 621.764 1096.42 620.178 1092.65 C 621.034 1087.95 630.964 1060.41 633.17 1053.97 L 664.073 964.16 z"/><path transform="translate(0,0)" fill="rgb(29,28,28)" d="M 1278.32 936.38 C 1281.63 935.835 1292.37 935.61 1295.92 935.768 C 1340.35 937.748 1369.26 954.514 1399 985.406 C 1395.25 996.188 1391.31 1011.91 1388.13 1023.23 C 1381.64 1013.17 1376.38 1003.52 1369.27 993.426 C 1337.08 945.814 1273.1 920.901 1223.66 958.558 C 1165.23 1003.05 1165.88 1101.34 1207.47 1156.67 C 1242.27 1202.96 1311.98 1225.56 1362.02 1191.31 C 1378.61 1179.96 1385.35 1159.83 1387.85 1141.07 C 1389.82 1129.17 1389.68 1113.79 1384.71 1104.34 C 1372.17 1080.48 1343.17 1089 1321.93 1086.52 C 1321 1086.42 1320.87 1085.52 1320.34 1084.34 C 1324.57 1082.43 1416.27 1083.14 1428.06 1083.04 C 1416.73 1095.07 1419.43 1110.32 1414.93 1127.48 C 1411.06 1142.49 1404.22 1156.57 1394.82 1168.89 C 1373.67 1196.3 1341.94 1211.85 1307.97 1216.06 C 1270.69 1220.58 1233.13 1210.22 1203.45 1187.21 C 1174.26 1164.29 1155.58 1128.58 1151.35 1091.93 C 1147.25 1055.04 1157.86 1018.02 1180.87 988.895 C 1205.7 957.934 1239.21 940.643 1278.32 936.38 z"/><path transform="translate(0,0)" fill="url(#Gradient1)" d="M 620.178 1092.65 C 621.764 1096.42 621.78 1096.39 622.288 1100.43 C 622.116 1100.72 621.94 1101 621.772 1101.29 C 614.018 1114.55 586.69 1193.89 591.416 1206.52 C 593.221 1211.35 598.033 1213.28 602.244 1215.65 C 588.775 1215.94 575.302 1215.96 561.833 1215.72 C 582.888 1202.89 589.542 1181.73 597.303 1159.44 C 605.041 1137.22 612.489 1114.89 620.178 1092.65 z"/></svg>