
<svg version="1.1" xmlns="http://www.w3.org/2000/svg" style="display: block;" viewBox="0 0 2000 2000" width="500" height="500" preserveAspectRatio="none"><path transform="translate(0,0)" fill="rgb(18,18,17)" d="M 0 0 L 2000 0 L 2000 2000 L 0 2000 L 0 0 z"/><path transform="translate(0,0)" fill="rgb(211,161,72)" d="M 1001.62 451.838 C 1004.73 452.681 1037.06 475.63 1042.72 479.526 L 1127.12 537.64 L 1296.36 654.185 C 1318.85 669.696 1341.39 685.149 1363.97 700.509 C 1366.89 702.496 1370.18 704.809 1371.13 708.085 L 1369.66 708.61 C 1362 706.499 1298.82 661.532 1287.94 654.046 L 1102.91 526.603 C 1071.22 504.766 1034.44 478.097 1002.35 457.757 L 771.649 621.997 C 732.69 649.726 686.884 684.175 647.237 709.993 C 649.301 749.434 647.687 805.007 647.688 845.763 L 647.623 1103.95 L 753.5 1103.89 L 1153.51 1103.89 L 1284.1 1103.85 C 1292.06 1103.85 1363.07 1102.63 1366.08 1105.86 C 1363.5 1107.56 1358.58 1108.74 1355.63 1108.73 C 1333.28 1108.65 1310.48 1108.57 1288.17 1108.57 L 1141.27 1108.55 L 643.042 1108.82 C 642.183 1051.23 642.987 991.456 642.991 933.73 L 642.777 708.568 C 646.586 702.788 705.608 662.494 717.738 653.907 L 902.421 522.967 C 932.339 501.751 973.901 474.098 1001.62 451.838 z"/><path transform="translate(0,0)" fill="rgb(251,251,249)" d="M 790.607 791.471 C 797.177 791.518 804.61 791.41 811.095 791.735 C 820.315 822.041 832.187 854.437 842.478 884.545 C 849.106 903.94 864.456 955.587 876.388 968.197 C 868.191 968.436 854.185 969.255 846.488 968.303 L 845.674 967.495 C 845.686 948.648 840.637 934.197 831.314 917.785 C 815.684 898.058 797.699 882.135 770.779 894.714 C 763.05 906.241 755.059 935.44 750.535 949.928 L 747.241 945.61 L 780.034 849.775 C 782.787 841.677 791.921 812.495 795.45 806.366 C 793.946 801.72 792.249 795.976 790.607 791.471 z"/><path transform="translate(0,0)" fill="rgb(18,18,17)" d="M 795.45 806.366 L 797.599 811.068 C 804.197 831.369 811.015 851.598 818.051 871.751 C 821.783 882.64 827.099 899.65 831.511 909.68 C 833.794 913.538 834.523 913.935 831.314 917.785 C 815.684 898.058 797.699 882.135 770.779 894.714 C 763.05 906.241 755.059 935.44 750.535 949.928 L 747.241 945.61 L 780.034 849.775 C 782.787 841.677 791.921 812.495 795.45 806.366 z"/><path transform="translate(0,0)" fill="rgb(222,223,225)" d="M 795.45 806.366 L 797.599 811.068 C 794.811 817.13 792.305 825.089 790.287 831.502 C 784.207 850.828 776.671 870.135 770.842 889.486 C 797.85 880.783 812.726 891.579 830.419 910.198 L 831.511 909.68 C 833.794 913.538 834.523 913.935 831.314 917.785 C 815.684 898.058 797.699 882.135 770.779 894.714 C 763.05 906.241 755.059 935.44 750.535 949.928 L 747.241 945.61 L 780.034 849.775 C 782.787 841.677 791.921 812.495 795.45 806.366 z"/><path transform="translate(0,0)" fill="rgb(251,251,249)" d="M 1190.91 790.457 C 1219.79 790.713 1239.32 802.972 1259.31 822.134 C 1256.72 830.267 1254.28 839.287 1251.86 847.544 C 1246.69 838.769 1242.29 831.821 1236.01 823.707 C 1214.45 794.821 1174.25 783.955 1145.21 809.081 C 1110.03 839.524 1113.29 901.794 1142.23 934.783 C 1156.17 950.858 1176 960.634 1197.24 961.902 C 1233.45 964.038 1249.37 945.015 1251.4 910.516 C 1249.64 879.434 1227.99 891.478 1209.43 885.867 C 1215.92 882.96 1264.59 883.89 1275.49 883.892 C 1274 888.354 1272.43 894.701 1271.78 899.439 C 1266.02 940.94 1237.47 966.268 1195.3 969.06 C 1171.92 970.521 1148.9 962.717 1131.22 947.337 C 1113.29 931.512 1102.8 907.98 1101.54 884.239 C 1100.47 860.593 1108.75 837.476 1124.59 819.885 C 1142.9 799.493 1164.33 791.968 1190.91 790.457 z"/><path transform="translate(0,0)" fill="rgb(251,251,249)" d="M 888.328 791.573 C 895.43 791.582 902.841 791.475 909.912 791.637 C 932.237 839.616 955.998 887.047 978.724 934.846 C 980.905 939.434 983.605 945.634 986.375 949.769 L 987.287 952.213 C 990.063 958.37 992.102 962.547 995.42 968.415 C 988.182 968.532 980.944 968.577 973.706 968.551 C 951.586 919.946 926.471 870.354 903.507 821.898 C 903.009 819.996 899.657 814.84 898.455 812.841 C 895.785 806.494 891.963 797.323 888.328 791.573 z"/><path transform="translate(0,0)" fill="rgb(251,251,249)" d="M 1059.97 794.121 C 1065.89 789.477 1078.75 792.037 1087.74 791.225 C 1084.31 795.816 1081.8 800.544 1081.65 806.485 C 1080.38 856.474 1080.18 907.191 1081.95 957.151 C 1082.09 960.853 1084.4 964.186 1086.42 967.092 L 1086.03 967.951 C 1078.76 969.073 1062.97 968.518 1055.04 968.294 C 1064.33 955.59 1061.75 936.339 1061.89 921.032 C 1062.24 880.637 1061.19 840.078 1061.84 799.695 L 1059.97 794.121 z"/><path transform="translate(0,0)" fill="rgb(251,251,249)" d="M 296.925 1273.78 C 296.837 1282.13 295.587 1305.09 298.76 1311.62 L 300.461 1312.3 C 302.295 1313.04 302.632 1313.15 304.219 1314.43 C 300.785 1316.95 285.581 1316.24 281.505 1314.89 L 282.119 1313.55 C 286.113 1312.29 285.801 1313.09 287.864 1310.37 C 289.305 1302.06 290.671 1253.27 285.842 1244.06 C 285.453 1243.32 282.811 1242.43 281.839 1242.08 L 282.151 1241.2 C 290.71 1240.19 306.878 1240.13 315.499 1241.05 C 343.546 1244.05 344.496 1271.67 319.074 1282.07 C 330.818 1295.26 335.575 1306.53 351.768 1314.62 L 351.282 1315.58 C 331.235 1316.9 326.537 1305.73 316.071 1291.21 C 310.646 1283.68 309.712 1283.51 301.955 1278.35 C 302.013 1277.75 301.939 1277.09 302.21 1276.55 L 296.925 1273.78 z"/><path transform="translate(0,0)" fill="rgb(18,18,17)" d="M 297.075 1244.68 C 305.13 1244.79 319.003 1244.41 324.012 1251.38 C 336.363 1268.56 319.611 1280.86 302.21 1276.55 L 296.925 1273.78 L 297.075 1244.68 z"/><path transform="translate(0,0)" fill="rgb(211,161,72)" d="M 1105.25 1401.68 C 1107.15 1402.54 1106.9 1403.54 1107.92 1406.24 C 1107.3 1408.56 1107.35 1408.08 1106.06 1410.22 C 1097.56 1413.72 1044.98 1411.98 1032.81 1411.98 L 895.056 1411.98 C 891.563 1410.01 892.497 1405.45 894.286 1402.55 C 898.803 1400.54 1084.8 1401.68 1105.25 1401.68 z"/><path transform="translate(0,0)" fill="rgb(251,251,249)" d="M 1515.56 1238.72 C 1519.72 1243.59 1523.89 1299.56 1527.53 1309.21 C 1528.68 1312.26 1532.03 1312.66 1535.58 1314.02 C 1531.43 1316.91 1518 1316.28 1513 1315.37 L 1512.36 1314.16 C 1513.52 1313.58 1516.4 1312.3 1516.49 1311.32 C 1517.42 1301.67 1511.8 1266.54 1510.41 1258.53 C 1501.75 1278.85 1488.43 1299.01 1482.05 1319.93 C 1478.81 1312.57 1456.1 1266.61 1452.3 1262.1 L 1451.32 1263.05 C 1449.48 1276.91 1447.61 1293.82 1446.17 1307.97 C 1446.05 1309.16 1448.3 1312.94 1449.01 1314.18 L 1449.68 1315.33 C 1446.19 1316.35 1434.01 1316.21 1430.41 1315.27 L 1430.48 1314.1 C 1432.25 1313.68 1434.79 1313.29 1436.25 1312.16 C 1441.82 1307.89 1447.53 1248.23 1449.56 1236.93 C 1459.4 1257.32 1474.78 1282.44 1483.19 1302.69 C 1493.85 1281.3 1504.64 1259.97 1515.56 1238.72 z"/><path transform="translate(0,0)" fill="rgb(251,251,249)" d="M 405.758 1238.17 C 415.619 1259.18 428.015 1289.48 439.416 1310.13 C 440.024 1311.23 444.51 1313.81 445.928 1314.63 C 442.148 1316.43 427.381 1316.42 423.208 1315.34 C 423.759 1312.42 426.815 1312.03 427.083 1311.14 C 428.354 1306.9 422.237 1294.01 419.696 1291.1 C 410.129 1291.14 398.879 1291.47 389.478 1290.71 C 383.473 1301.27 382.608 1302.57 383.863 1314.05 C 381.125 1316.9 368.734 1316.53 365.007 1315.4 C 367.233 1312.26 370.795 1313.04 372.63 1309.27 C 383.716 1286.51 396.578 1261.61 405.758 1238.17 z"/><path transform="translate(0,0)" fill="rgb(18,18,17)" d="M 405.709 1252.28 C 408.56 1264.3 414.681 1275.18 418.312 1286.93 L 419.696 1291.1 C 410.129 1291.14 398.879 1291.47 389.478 1290.71 L 391.201 1285.86 C 395.668 1274.95 400.339 1262.67 405.709 1252.28 z"/><path transform="translate(0,0)" fill="rgb(222,223,225)" d="M 389.478 1290.71 L 391.201 1285.86 C 398.737 1286.6 412.762 1285.77 418.312 1286.93 L 419.696 1291.1 C 410.129 1291.14 398.879 1291.47 389.478 1290.71 z"/><path transform="translate(0,0)" fill="rgb(251,251,249)" d="M 997.26 1238.55 C 1006.76 1243.65 1052.43 1289.34 1063.82 1300.01 C 1063.1 1284.26 1065.03 1261 1061.92 1245.67 C 1061.56 1243.88 1058.31 1243.05 1056.03 1242.01 L 1056.74 1241.35 C 1062.04 1240.85 1072.17 1239.57 1076.91 1241.51 C 1065.52 1248.33 1069.17 1255.35 1069.26 1267.4 C 1069.23 1283.86 1069.56 1300.31 1070.24 1316.74 L 1069.57 1317.3 C 1066.73 1316.79 1010.2 1262.01 1004.15 1255.64 C 1004.02 1271.2 1003.12 1295.11 1004.5 1310 C 1007.09 1313.06 1006.93 1312.25 1011.36 1313.79 L 1011.42 1314.83 C 1005.37 1315.8 996.796 1316.44 990.741 1315.29 L 990.418 1314.02 C 993.44 1313.2 994.52 1313.1 997.109 1311.24 C 999.202 1303.64 998.323 1249.49 997.401 1239.94 L 997.26 1238.55 z"/><path transform="translate(0,0)" fill="rgb(251,251,249)" d="M 1643.12 1237.72 C 1665.34 1257.21 1686.66 1279 1708.7 1298.87 C 1708.84 1298.86 1714.58 1296.55 1715.35 1295.95 C 1715.5 1303.82 1715.77 1311.68 1716.16 1319.54 C 1697.39 1300.29 1670.19 1274.72 1650.02 1256.57 C 1650.08 1266.89 1648.95 1305.38 1652.05 1312.35 L 1657.23 1314.58 C 1653.06 1316.44 1642.33 1316.09 1637.67 1315.38 L 1636.4 1314.41 C 1641.08 1311.14 1640.68 1314.02 1643.58 1310.36 C 1644.87 1298.13 1644.61 1249.4 1643.12 1237.72 z"/><path transform="translate(0,0)" fill="rgb(251,251,249)" d="M 826.378 1239.21 C 841.114 1238.43 848.38 1240.19 862.373 1245.23 C 864.105 1252.72 865.632 1260.6 867.214 1268.14 C 857.487 1249.32 850.72 1240.33 826.905 1243.63 C 796.833 1247.8 793.335 1294.78 816.735 1309.13 C 826.548 1315.14 837.662 1313.96 848.36 1311.51 C 863.645 1304.86 864.014 1297.48 870.601 1283.32 C 868.566 1301.04 867.481 1310.23 848.149 1315.7 C 835.446 1319.3 822.033 1319.09 810.37 1312.33 C 801.895 1307.37 795.805 1299.17 793.504 1289.62 C 786.786 1262.87 800.547 1244.78 826.378 1239.21 z"/><path transform="translate(0,0)" fill="rgb(251,251,249)" d="M 1607.81 1239.46 C 1607.65 1243.06 1607.81 1248.52 1606.23 1251.51 C 1605.16 1249.54 1603.68 1245.89 1601.93 1245.53 C 1593.47 1243.8 1582.84 1245.06 1574.19 1244.75 L 1573.99 1276.01 C 1578.95 1276.13 1595.18 1277.4 1598.52 1274.46 C 1599.64 1273.48 1601 1271.75 1601.94 1270.51 L 1602.74 1271.04 C 1602.66 1276.18 1602.37 1280.32 1602.65 1285.5 L 1601.71 1285.72 C 1597.39 1281.3 1597.78 1280.51 1590.61 1280.35 C 1585.23 1280.23 1579.48 1280.57 1574.09 1280.23 C 1574.02 1285.5 1572.91 1308.73 1575.26 1311.78 L 1576.77 1312.48 C 1588.97 1311.45 1592.49 1313.16 1605 1309.15 C 1608.42 1304.99 1611.86 1300.86 1615.33 1296.75 C 1612.93 1303.04 1610.64 1309.64 1608.34 1315.99 C 1600.83 1316.03 1561.8 1316.73 1557.96 1314.78 C 1560.68 1312.74 1561.51 1313 1564.89 1312.93 C 1567.8 1295.35 1565.9 1264.1 1564.61 1246.1 C 1564.54 1245.12 1559.52 1242.63 1558.24 1241.34 C 1570.03 1239.4 1593.24 1241.12 1607.81 1239.46 z"/><path transform="translate(0,0)" fill="rgb(251,251,249)" d="M 601.355 1239.7 C 602.158 1239.6 601.566 1239.61 602.953 1240.49 C 603.366 1243.88 603.643 1246.4 603.776 1249.8 L 601.784 1251.59 C 597.499 1244.71 595.63 1244.51 587.345 1244.64 C 581.318 1244.73 575.137 1244.74 569.101 1244.73 L 568.982 1276 C 573.477 1276.14 579.159 1276.19 583.558 1276.32 C 594.858 1276.67 590.871 1274.67 596.476 1270.15 C 597.531 1273.27 597.541 1283.22 596.351 1286.19 C 594.26 1284.4 593.185 1283.08 591.413 1281.04 C 586.389 1279.79 575.446 1280.5 569.047 1280.2 L 569.07 1312.08 C 579.595 1312.17 587.025 1312.33 597.408 1310.38 C 603.517 1306.35 605.799 1302.32 610.243 1296.44 C 608.096 1302.85 605.535 1309.52 603.202 1315.89 C 595.944 1315.96 557.67 1317.2 554.043 1314.67 L 554.202 1313.58 L 559.065 1312.33 C 562.422 1304.42 561.939 1251.66 558.424 1243.95 C 555.967 1243.08 555.861 1243.25 554.062 1241.44 C 558.292 1240.46 592.848 1240.13 601.355 1239.7 z"/><path transform="translate(0,0)" fill="rgb(251,251,249)" d="M 1204.64 1312.02 C 1208.51 1310.2 1206.63 1253.42 1205.83 1245.99 C 1205.68 1244.63 1201.94 1243.01 1200.52 1242.39 L 1198.99 1241.73 C 1201.64 1240.19 1239.96 1240.77 1248.74 1238.96 L 1248.97 1255.94 C 1244.52 1245.03 1242.05 1243.91 1229.92 1244.6 C 1225.37 1244.86 1219.9 1244.8 1215.26 1244.79 C 1214.88 1254.97 1214.99 1265.73 1214.92 1275.95 C 1220.69 1276.14 1235.69 1277.3 1239.82 1274.69 C 1240.99 1271.5 1240.23 1272.29 1242.41 1270.12 C 1243.58 1273.25 1243.22 1281.95 1242.95 1285.41 L 1241.95 1285.89 C 1237.86 1277.91 1223.23 1280.36 1214.98 1280.39 C 1214.9 1287.21 1213.52 1308.15 1216.81 1312.5 C 1227.63 1312.06 1235.96 1312.49 1246.31 1309.15 C 1248.83 1305.83 1250.78 1303.28 1253.57 1300.2 L 1254.59 1300.22 L 1254.1 1302.48 L 1252.11 1301.86 L 1254.01 1302.75 L 1249.41 1315.9 C 1241.41 1315.97 1204.69 1317.14 1200.02 1314.54 C 1201.07 1312.61 1201.82 1312.97 1204.64 1312.02 z"/><path transform="translate(0,0)" fill="rgb(251,251,249)" d="M 1115.7 1240.57 L 1117.86 1240.27 L 1118.74 1241.09 L 1115.13 1245.91 C 1114.63 1252.29 1133.97 1295.45 1137.76 1304.4 C 1143.28 1289.4 1155.98 1262.24 1160.24 1246.46 C 1160.68 1244.85 1157.88 1243.02 1156.25 1241.61 C 1159.15 1240.36 1176.51 1240.41 1180.44 1240.32 C 1172.43 1243.84 1171.11 1244.2 1167.07 1251.76 C 1161.48 1262.66 1139.09 1310.1 1136.86 1320.15 C 1127.06 1296.01 1114.17 1269.8 1102.75 1246.27 C 1101.98 1244.69 1097.78 1242.53 1096.13 1241.67 C 1098.58 1240.35 1111.9 1240.63 1115.7 1240.57 z"/><path transform="translate(0,0)" fill="rgb(251,251,249)" d="M 144.49 1226.21 C 151.988 1226.42 156.006 1227.1 163.449 1228.38 C 163.501 1232.57 163.98 1238.25 162.578 1242.01 C 161.088 1240.73 160.359 1236.77 158.426 1234.86 C 149.772 1225.95 132.147 1231.41 132.861 1245.11 C 133.578 1258.84 154.242 1268.68 162.247 1278.84 C 170.513 1289.34 171.851 1304.04 160.311 1312.44 C 151.366 1318.95 143.884 1318.08 133.986 1316.64 C 118.564 1310.48 122.238 1305.06 125.635 1290.53 C 127.23 1297.31 126.485 1307.56 133.57 1311.55 C 142.384 1316.51 156.476 1312.99 160.096 1303.16 C 167.29 1282.27 129.471 1271.03 125.767 1252.29 C 122.904 1237.81 131.54 1229.71 144.49 1226.21 z"/><path transform="translate(0,0)" fill="rgb(251,251,249)" d="M 1283.02 1304.93 C 1285.75 1309.33 1289.9 1313.38 1294.74 1313.45 C 1321.48 1313.88 1322.97 1295.25 1301.44 1282.61 C 1293.21 1277.78 1278.01 1265.09 1280.3 1255.39 C 1284.85 1236.14 1303.31 1238.56 1318.08 1240.34 C 1318.24 1245.2 1319 1251.39 1319.46 1256.34 C 1313.17 1244.5 1302.68 1235.25 1287.74 1250.75 C 1282.3 1256.39 1298.17 1269.99 1304.01 1273.54 C 1325.55 1286.6 1334.68 1309.02 1303.97 1317.65 C 1299.41 1318.96 1285 1316.54 1280.27 1312.68 C 1278.05 1309.21 1278.51 1306.31 1278.45 1302.1 L 1280.31 1297.85 L 1281.7 1297.37 C 1283.26 1300.13 1282.98 1301.75 1283.02 1304.93 z"/><path transform="translate(0,0)" fill="rgb(222,223,225)" d="M 1278.45 1302.1 L 1280.31 1297.85 L 1281.7 1297.37 C 1283.26 1300.13 1282.98 1301.75 1283.02 1304.93 C 1281.39 1306.59 1282.34 1306.19 1280.28 1306.36 L 1278.45 1302.1 z"/><path transform="translate(0,0)" fill="rgb(251,251,249)" d="M 1851.35 1239.13 C 1859.66 1238.76 1863.59 1239.29 1871.95 1240.34 C 1872 1244.58 1871.81 1248.34 1871.59 1252.55 L 1870.5 1252.64 C 1867.44 1247.27 1864.92 1242.17 1858.39 1242.77 C 1834.18 1244.97 1838.63 1262.13 1855.68 1271.94 C 1860.25 1274.57 1867.32 1280.72 1870.97 1283.87 C 1881.59 1293.01 1879.02 1304.48 1869.26 1312.95 C 1862.85 1318.57 1854.72 1318 1846.82 1317.41 C 1829.78 1313.41 1832.2 1309.67 1832.25 1292.96 C 1836.87 1302.25 1835.8 1305.38 1844.39 1312.79 C 1875.23 1317.26 1878.09 1296.47 1853.63 1281.17 C 1834.85 1269.43 1821.5 1249.25 1851.35 1239.13 z"/><path transform="translate(0,0)" fill="rgb(251,251,249)" d="M 1742.28 1238.8 C 1758.14 1242.29 1793.26 1239.16 1810.31 1239.71 L 1811.32 1241.3 C 1811.37 1244.54 1811.68 1247.91 1810.79 1250.97 C 1804.52 1241.46 1792.69 1244.79 1781.8 1244.13 L 1781.66 1299.25 C 1781.7 1308.88 1781.12 1307.2 1786.74 1314.84 C 1783.86 1316.5 1769.93 1316.14 1766.34 1315.43 L 1766.1 1314.24 C 1768.81 1313.07 1769.67 1312.82 1772.1 1311.08 C 1774.03 1305.48 1773.04 1253.79 1773.01 1244.27 C 1764.77 1244.64 1755.94 1244.66 1747.65 1244.84 L 1741.88 1253.88 L 1742.28 1238.8 z"/><path transform="translate(0,0)" fill="rgb(251,251,249)" d="M 1344.29 1238.77 C 1355.39 1241.06 1402.89 1241.26 1413.63 1239 C 1414.08 1242.93 1414.94 1247.8 1414.34 1251.6 C 1413.77 1250.97 1413.2 1250.36 1412.62 1249.75 C 1412.14 1249.26 1408.22 1245.56 1408.06 1245.52 C 1402.14 1243.83 1390.07 1244.44 1383.82 1244.36 C 1382.99 1262.44 1383.37 1282.99 1383.3 1301.25 C 1383.51 1304.66 1383.28 1309.23 1385.17 1311.82 C 1387.65 1312.7 1388.79 1312.83 1390.64 1314.67 C 1386.05 1316.69 1372.68 1316.49 1367.62 1314.68 C 1370.99 1312.71 1374.99 1310.81 1375.01 1306.26 C 1375.1 1285.55 1374.93 1264.83 1374.81 1244.12 C 1359.62 1245.8 1351.98 1238.91 1344.06 1254.62 C 1344.34 1248.91 1344.42 1244.5 1344.29 1238.77 z"/><path transform="translate(0,0)" fill="rgb(251,251,249)" d="M 502.237 1240.63 L 530.276 1239.6 C 531.339 1242.63 530.962 1247.15 530.921 1250.48 L 530.267 1251.53 C 528.553 1248.86 527.293 1245.66 524.519 1245.02 C 517.93 1243.52 509.192 1245.41 502.919 1244.08 L 501.135 1245.07 C 499.765 1248.91 500.446 1303.27 501.246 1309.91 C 503.001 1312.73 506.776 1314 509.942 1315.5 C 504.171 1315.73 488.576 1317.02 484.469 1314.5 C 486.557 1313.66 488.666 1312.97 490.36 1311.43 C 493.875 1308.24 492.014 1252.49 491.984 1244.23 C 485.011 1244.72 478.205 1244.04 471.233 1244.56 C 466.162 1244.94 465.888 1246.16 462.62 1250.34 L 461.752 1251.47 C 460.341 1248.89 461.206 1242.53 461.335 1238.98 C 470.699 1240.45 492.359 1240.77 502.237 1240.63 z"/><path transform="translate(0,0)" fill="rgb(251,251,249)" d="M 219.983 1244.23 C 212.525 1244.78 205.328 1243.91 197.916 1244.73 C 193.937 1245.17 193.269 1246.92 190.647 1250.34 L 189.79 1251.48 C 188.336 1248.9 189.229 1242.77 189.368 1239.18 C 201.206 1240.33 218.235 1240.82 230.238 1240.63 L 258.274 1239.6 C 259.351 1242.61 258.959 1247.16 258.913 1250.49 L 258.267 1251.53 C 256.552 1248.86 255.29 1245.67 252.519 1245.03 C 245.973 1243.51 237.16 1245.42 230.953 1244.08 L 229.144 1245.06 C 227.751 1248.94 228.454 1303.36 229.246 1309.91 C 231.001 1312.73 234.775 1314 237.938 1315.5 C 232.167 1315.73 216.573 1317.02 212.468 1314.5 C 214.555 1313.66 216.663 1312.96 218.356 1311.43 C 221.888 1308.22 220.014 1252.36 219.983 1244.23 z"/><path transform="translate(0,0)" fill="rgb(251,251,249)" d="M 659.923 1315.86 C 636.908 1311.63 627.614 1285.8 634.048 1265.16 C 636.972 1255.69 643.667 1247.84 652.559 1243.45 C 669.076 1235.16 686.014 1239.51 702.278 1245.23 L 705.242 1261.41 C 704.279 1261.8 704.827 1261.83 703.327 1259.93 C 698.875 1254.31 692.092 1245.23 684.556 1243.87 C 674.594 1242.07 663.3 1242.4 654.875 1248.65 C 646.956 1254.53 642.976 1263.06 641.836 1272.59 C 640.635 1282.64 642.372 1294.61 649.031 1302.54 C 655.403 1310.14 661.585 1312.69 671.102 1313.48 C 666.294 1316.86 666.579 1315.62 659.923 1315.86 z"/><path transform="translate(0,0)" fill="rgb(251,251,249)" d="M 737.185 1241.47 C 745.187 1240.48 758.404 1240.83 766.818 1240.91 C 762.521 1242.69 761.737 1242.51 757.769 1245.24 C 755.043 1251.45 755.282 1303.53 757.206 1310.55 C 759.666 1313.5 761.777 1312.27 765.191 1314.61 C 759.422 1315.86 744.084 1317.3 738.708 1314.53 C 741.632 1312.41 743.11 1313.09 746.309 1311.28 C 749.439 1305.77 748.641 1253 746.684 1245.7 C 744.093 1243.02 740.811 1242.52 737.185 1241.47 z"/><path transform="translate(0,0)" fill="rgb(251,251,249)" d="M 937.838 1241.47 C 945.019 1240.48 959.162 1240.84 966.856 1240.89 C 960.484 1243.28 956.445 1243.6 956.408 1251.31 C 956.316 1270.63 954.333 1291.79 957.421 1310.69 C 957.656 1312.13 964.323 1314.06 965.704 1314.49 C 960.306 1315.75 943.38 1317.72 939.015 1314.32 C 941.471 1312.98 947.258 1312.01 947.548 1308.59 C 948.403 1293.74 948.51 1278.34 948.188 1263.42 C 947.903 1250.19 950.884 1245.56 937.838 1241.47 z"/><path transform="translate(0,0)" fill="rgb(222,223,225)" d="M 986.375 949.769 C 989.684 939.281 1001.54 916.01 1006.67 905.391 L 1045.57 824.895 C 1047.44 820.986 1059.33 796.88 1059.97 794.121 L 1061.84 799.695 C 1052.98 816.214 993.131 947.149 987.287 952.213 L 986.375 949.769 z"/><path transform="translate(0,0)" fill="rgb(164,163,166)" d="M 898.455 812.841 C 899.657 814.84 903.009 819.996 903.507 821.898 C 902.438 833.815 902.944 853.931 902.95 866.483 L 902.877 945.071 C 901.51 938.728 902.319 929.106 900.653 924.825 C 898.694 926.871 898.601 929.442 898.027 932.339 C 897.777 916.048 895.584 820.496 898.455 812.841 z"/><path transform="translate(0,0)" fill="rgb(222,223,225)" d="M 1708.7 1298.87 C 1710.99 1295.04 1709.12 1254.3 1708.8 1247.22 C 1708.69 1244.75 1703.75 1243.01 1701.53 1241.78 C 1704.19 1240.06 1719.13 1240.22 1722.81 1240.62 L 1722.47 1241.94 L 1716.86 1244.47 C 1714.61 1248.7 1715.39 1288.07 1715.35 1295.95 C 1714.58 1296.55 1708.84 1298.86 1708.7 1298.87 z"/><path transform="translate(0,0)" fill="rgb(251,251,249)" d="M 898.027 932.339 C 898.601 929.442 898.694 926.871 900.653 924.825 C 902.319 929.106 901.51 938.728 902.877 945.071 C 903.94 953.844 907.072 961.261 912.316 968.3 C 904.344 968.54 896.112 968.53 888.116 968.623 C 896.88 956.259 897.835 946.626 898.027 932.339 z"/><path transform="translate(0,0)" fill="rgb(251,251,249)" d="M 700.147 1303.81 C 702.414 1292.84 702.254 1290.28 696.337 1281.08 C 698.961 1279.44 710.636 1280.11 714.104 1280.51 L 714.5 1281.71 C 707.266 1287.21 709.187 1293.55 709.473 1301.95 C 706.815 1304.2 703.975 1306.72 701.206 1308.78 C 700.215 1306.57 700.458 1306.34 700.147 1303.81 z"/><path transform="translate(0,0)" fill="rgb(251,251,249)" d="M 747.241 945.61 L 750.535 949.928 C 749.083 959.208 749.574 958.584 753.363 967.26 L 752.528 968.368 C 744.932 968.452 737.335 968.49 729.738 968.483 C 739.416 961.226 742.567 956.274 747.241 945.61 z"/><path transform="translate(0,0)" fill="rgb(222,223,225)" d="M 671.102 1313.48 C 685.485 1313.02 688.411 1312.11 700.147 1303.81 C 700.458 1306.34 700.215 1306.57 701.206 1308.78 C 691.375 1316.17 678.987 1319.3 666.826 1317.47 C 664.816 1317.16 661.897 1316.47 659.923 1315.86 C 666.579 1315.62 666.294 1316.86 671.102 1313.48 z"/></svg>