<?xml version="1.0" standalone="no"?>
<!DOCTYPE svg PUBLIC "-//W3C//DTD SVG 20010904//EN"
 "http://www.w3.org/TR/2001/REC-SVG-20010904/DTD/svg10.dtd">
<svg version="1.0" xmlns="http://www.w3.org/2000/svg"
 width="500.000000pt" height="500.000000pt" viewBox="0 0 500.000000 500.000000"
 preserveAspectRatio="xMidYMid meet">

<g transform="translate(0.000000,500.000000) scale(0.100000,-0.100000)"
fill="#000000" stroke="none">
<path d="M0 2500 l0 -2500 2500 0 2500 0 0 2500 0 2500 -2500 0 -2500 0 0
-2500z m3211 1009 c401 -276 729 -506 729 -511 0 -10 -14 0 -880 595 -497 342
-577 394 -593 384 -10 -7 -326 -230 -702 -497 l-684 -485 -1 -787 0 -788 1423
-3 1422 -2 -1432 -3 -1433 -2 0 793 0 793 700 498 c385 274 703 502 706 507 3
5 8 9 11 9 3 0 333 -226 734 -501z m-1405 -1099 c110 -322 143 -411 162 -432
14 -17 11 -18 -46 -18 l-62 0 0 38 c0 20 -12 64 -26 97 -14 33 -27 71 -29 85
-3 20 -106 324 -131 390 -5 12 -58 -130 -110 -293 -5 -16 -3 -17 14 -8 53 29
141 1 197 -61 l30 -33 -35 32 c-70 64 -159 81 -204 41 -16 -15 -35 -56 -55
-121 -33 -104 -39 -152 -18 -160 6 -3 -10 -6 -37 -6 l-50 -1 23 21 c30 28 35
41 142 353 70 203 89 268 84 294 -6 33 -6 33 31 30 l36 -3 84 -245z m311 238
c4 -7 71 -145 149 -306 78 -161 145 -294 150 -295 4 -1 74 135 154 303 l147
305 47 3 c46 3 47 2 39 -20 -10 -30 -11 -626 0 -655 8 -22 6 -23 -48 -23 -51
0 -56 2 -49 18 10 18 18 650 9 641 -3 -3 -70 -140 -150 -304 -140 -291 -144
-299 -129 -326 l15 -29 -41 0 -40 0 -98 203 c-53 111 -118 245 -144 297 l-48
95 3 -265 c2 -232 4 -269 20 -297 l18 -33 -46 0 -45 0 17 27 c16 24 18 59 21
309 3 241 1 287 -12 313 -9 16 -16 35 -16 41 0 14 67 13 77 -2z m1254 -17 c26
-12 65 -37 87 -56 39 -34 39 -34 29 -80 -6 -25 -14 -45 -18 -45 -4 0 -18 19
-32 43 -100 168 -300 204 -414 73 -80 -90 -97 -267 -39 -393 54 -118 156 -186
281 -187 57 -1 79 4 115 24 57 32 90 92 90 166 0 77 -21 97 -107 105 -53 5
-38 6 70 7 128 2 137 1 128 -15 -5 -10 -14 -43 -21 -74 -21 -107 -95 -189
-202 -225 -69 -23 -196 -16 -259 15 -178 85 -253 305 -164 481 23 46 101 126
146 150 84 46 227 51 310 11z"/>
</g>
</svg>
